<svg fill="none" height="35" viewBox="0 0 233 35" width="233" xmlns="http://www.w3.org/2000/svg"><g fill="#4ea68e"><path d="m17.8106 11.7795c.4619-.3484.8557-.7575 1.1813-1.2196.6134-.91657.9239-2.08313.9239-3.48453 0-.94688-.159-1.84832-.4771-2.67401-.3256-.85598-.833-1.59077-1.4993-2.18163-.6891-.59843-1.5373-1.06051-2.5141-1.378664-.992-.303004-2.1582-.462082-3.4834-.462082h-11.9419v22.914716h12.0328c1.3555 0 2.5368-.1667 3.4909-.4924.992-.3182 1.8401-.7803 2.499-1.3711.6891-.6287 1.1964-1.356 1.5145-2.1816.3104-.8485.4619-1.7423.4619-2.6741 0-1.4165-.3332-2.6134-.9769-3.5375-.3332-.4697-.7345-.8939-1.2116-1.2575zm-12.37351-5.96159h6.62601c.8557 0 1.4917.17422 1.8401.49995.3256.32573.4846.75751.4846 1.34837 0 .56813 0 1.62107-2.3475 1.62107h-6.59564v-3.46939zm8.54181 11.53689c-.3332.3106-.9768.4696-1.8628.4696h-6.68658v-3.6512h6.68658c2.0597 0 2.3475.8712 2.3475 1.8181.0075.6135-.1515 1.0605-.4847 1.3635z"/><path d="m31.8153 17.7937c-.727 0-1.3328-.0758-1.7871-.2348-.4241-.144-.7573-.3333-.992-.5606-.2196-.2121-.3786-.4696-.4619-.7651-.1061-.3636-.1666-.7499-.1666-1.159v-14.688087h-5.5053v14.725987c0 1.1514.1591 2.2271.462 3.1967.3256 1.0151.8481 1.9089 1.575 2.6513.7194.7423 1.6509 1.3256 2.764 1.7347 1.0829.4015 2.3929.606 3.8923.606h9.3142v-5.5071z"/><path d="m56.0365.386113h-2.8775c-3.3319 0-5.9369.977187-7.7392 2.916417-1.7871 1.9165-2.6958 4.81019-2.6958 8.59017 0 3.7648.9087 6.6358 2.7034 8.5296 1.8023 1.9089 4.4072 2.8785 7.7392 2.8785h2.8775c3.3319 0 5.9293-.9696 7.7391-2.8785 1.7947-1.8938 2.7035-4.7648 2.7035-8.5296 0-3.78756-.9088-6.67367-2.6959-8.59017-1.8174-1.93923-4.4223-2.916417-7.7543-2.916417zm3.7333 16.112287c-.7421.8635-1.9991 1.2953-3.7333 1.2953h-2.8775c-1.7796 0-3.0518-.4318-3.7787-1.2802-.7648-.8863-1.151-2.4468-1.151-4.6284 0-2.20434.3937-3.77996 1.1737-4.68897.7421-.87114 2.0067-1.31049 3.7636-1.31049h2.8775c1.7493 0 3.0139.43935 3.7484 1.30291.7724.90902 1.1586 2.47706 1.1586 4.66625-.0075 2.1892-.4013 3.7497-1.1813 4.6436z"/><path d="m78.7558.386113c-3.3319 0-5.9293.977187-7.7391 2.893687-1.7947 1.90893-2.6959 4.79504-2.6959 8.575 0 3.7648.9087 6.6434 2.6959 8.5447 1.8098 1.9241 4.4072 2.8937 7.7391 2.8937h9.0644v-5.5071h-9.0644c-1.772 0-3.0441-.4318-3.7787-1.2953-.7648-.9015-1.1586-2.4619-1.1586-4.6436 0-2.20431.3938-3.77236 1.1662-4.6738.7421-.85598 2.0067-1.29534 3.7636-1.29534h9.0643v-5.491947z"/><path d="m108.636 15.3475c-.326-.6363-.644-1.1893-.955-1.659-.325-.4999-.674-.9393-1.037-1.3029-.311-.3106-.651-.5833-1.007-.8181.303-.2348.575-.5.818-.7802.583-.6742 1.143-1.52264 1.65-2.52255l3.984-7.885682h-5.998l-.25.492382-3.218 6.31764c-.265.53783-.515.95446-.742 1.25746-.174.23483-.386.40906-.636.53026-.273.13635-.644.22725-1.098.26513-.5455.05302-1.2574.07575-2.1206.07575h-1.1208v-8.931046h-5.5052v22.914656h5.5052v-8.8174h1.1208c.9693 0 1.7644.0227 2.3626.0758.523.0454.947.1363 1.265.2802.287.1288.515.303.696.5227.227.2803.477.6818.742 1.1893l3.219 6.2495.25.4924h6.164z"/><path d="m133.202 11.4003c-.614-.6742-1.454-1.2272-2.492-1.64379-1.022-.40148-2.317-.61358-3.862-.61358h-4.975c-.538 0-.969-.05303-1.28-.15908-.28-.09847-.499-.21967-.643-.37118-.144-.14392-.243-.303-.296-.47723-.068-.22725-.106-.4545-.106-.68933 0-.52268.144-.93174.44-1.24989.28-.29543.787-.44693 1.506-.44693h11.723v-5.363177h-11.601c-1.265 0-2.378.166652-3.302.507532-.954.348455-1.749.840835-2.37 1.477145s-1.083 1.39382-1.363 2.25738c-.265.82569-.402 1.7347-.402 2.69674 0 .80296.114 1.62107.326 2.42403.235.85596.651 1.62866 1.249 2.31036.599.6818 1.424 1.2348 2.446 1.6438 1.008.4015 2.249.5909 3.802.5909h4.945c.56 0 1.014.0606 1.355.1742.311.1061.561.2424.72.4015.151.1439.257.3106.325.5075.076.2424.121.4848.121.7424 0 .5606-.159.9999-.477 1.3408-.31.3257-.855.4848-1.628.4848h-12.797v5.3707h12.668c1.311 0 2.454-.1742 3.385-.5226.962-.3561 1.765-.8636 2.393-1.5075.636-.6439 1.098-1.4165 1.394-2.2877.28-.8332.416-1.7574.416-2.7497 0-.8257-.113-1.659-.325-2.4771-.243-.8938-.674-1.6892-1.295-2.371z"/><path d="m136.652.386113v5.363167h6.21v17.55152h5.392v-17.55152h6.201v-5.363167z"/><path d="m164.212 17.9376c-.878 0-1.507-.1666-1.878-.4999-.348-.3106-.515-.7575-.515-1.356 0-.8711.288-1.765 2.424-1.765h11.374v-5.02227h-11.283c-2.424 0-2.424-1.14384-2.424-1.69682 0-.59086.167-1.03779.5-1.36352.341-.32573.992-.49238 1.886-.49238h11.472v-5.355597h-11.472c-1.341 0-2.514.159077-3.476.462082-1 .318155-1.84.772655-2.499 1.363515-.674.59844-1.181 1.32565-1.499 2.16648-.311.80296-.462 1.68925-.462 2.62856 0 2.10588.742 3.73455 2.158 4.79505-.515.3863-.954.856-1.303 1.3862-.613.9393-.923 2.1135-.923 3.4922 0 .909.151 1.7801.446 2.5831.311.8408.811 1.5756 1.485 2.174.658.5909 1.499 1.053 2.491 1.3787.969.3181 2.143.4848 3.483.4848h11.601v-5.3708h-11.586z"/><path d="m214.576 22.1875-6.581-17.71061c-.454-1.32565-1.128-2.40889-1.991-3.20427-.916-.840839-2.204-1.27262-3.817-1.27262-1.81 0-3.195.522683-4.134 1.54532-.917.99992-1.379 2.31798-1.379 3.90875v12.57463c0 .2046-.06.2727-.09.303-.046.0531-.091.0758-.19.0758-.159 0-.212-.0455-.235-.0606-.083-.0682-.143-.1591-.196-.2954l-5.172-13.57461c-.425-1.3105-1.076-2.39374-1.924-3.18912-.901-.848414-2.188-1.28019472-3.824-1.28019472-1.833 0-3.233.52268272-4.165 1.54532472-.916 1.00749-1.378 2.31798-1.378 3.90875v17.83935h5.369v-17.64997c0-.11363.015-.26513.091-.34846.015-.02272.053-.0606.197-.0606.09 0 .136.02273.181.0606.091.07575.167.1818.22.32573l5.164 13.5746c.455 1.3181 1.121 2.4013 1.969 3.1891.909.8484 2.189 1.2726 3.802 1.2726 1.81 0 3.203-.5151 4.149-1.5377.932-.9999 1.401-2.3332 1.401-3.9467v-12.52917c0-.11363.016-.26513.091-.34846.023-.0303.053-.0606.159-.0606.144 0 .19.03788.212.0606.091.07575.167.1818.22.32573l6.323 17.1273.197.5378h5.755z"/></g></svg>