<svg fill="none" viewBox="0 0 323 172" xmlns="http://www.w3.org/2000/svg" xmlns:xlink="http://www.w3.org/1999/xlink"><linearGradient id="a" gradientUnits="userSpaceOnUse" x1="274.274" x2="117.002" y1="27.9045" y2="136.5"><stop offset="0" stop-color="#ffc069"/><stop offset="1" stop-color="#fb9100"/></linearGradient><clipPath id="b"><path d="m0 0h323v172h-323z"/></clipPath><g clip-path="url(#b)"><path d="m293.502 25.5-7.599 50.5049-39.939-31.8331zm-307.0712 115.93c16.9447 8.212 51.3771 18.691 85.5203 20.704 34.4849 2.033 66.5599-4.655 81.4989-28.279l7.477 4.728c-17.749 28.067-54.546 34.442-89.4966 32.382-35.2928-2.081-70.860191-12.852-88.8578-21.575zm146.3142-25.386c5.561.949 13.994.213 24.53-2.348 10.422-2.532 22.494-6.747 35.142-12.378 25.325-11.2749 52.582-28.0588 73.209-47.8785l6.129 6.3788c-21.531 20.6879-49.713 37.994-75.74 49.5807-13.028 5.801-25.61 10.21-36.651 12.893-10.926 2.655-20.762 3.726-28.107 2.472zm20.705 17.811c15.76-24.923 16.208-44.0724 11.293-58.036-5-14.2046-15.848-23.8906-24.095-29.0743l4.708-7.4895c9.253 5.8162 21.841 16.8944 27.731 33.6266 5.975 16.9733 4.766 38.9332-12.16 65.7012zm-57.1173-67.9562c-2.5503 12.2881-.6398 23.508 5.2633 32.2094 5.889 8.6808 16.101 15.3678 31.149 17.9358l-1.488 8.72c-16.961-2.894-29.499-10.659-36.9818-21.69-7.4693-11.0098-9.5537-24.761-6.604-38.9729zm44.3153-19.1541c-7.561-4.7527-17.51-5.762-26.145-2.6467-8.481 3.0595-15.7436 10.1089-18.1703 21.8008l-8.6615-1.7977c3.0733-14.8081 12.5608-24.2588 23.8298-28.3243 11.114-4.0096 23.916-2.7689 33.855 3.4784z" fill="url(#a)"/><g fill="#fff"><path d="m130.497 76c.538 0 .358 1.9854 2.195 4.1752 2.13 2.5383 4.445 2.3503 4.302 2.9489-.105.4379-2.465-.4637-4.884 1.3431-1.838 1.3722-1.449 3.5328-2.136 3.5328-.553 0-.657-1.989-2.27-3.5328-1.449-1.3869-3.704-1.0657-3.704-1.8103 0-.69 2.229 0 4.242-2.1168 1.762-1.8538 1.538-4.5401 2.255-4.5401z"/><path d="m226.495 115c.786 0 .524 2.978 3.209 6.263 3.112 3.807 6.496 3.525 6.287 4.423-.153.657-3.602-.695-7.138 2.015-2.686 2.058-2.118 5.299-3.122 5.299-.807 0-.961-2.984-3.318-5.299-2.117-2.081-5.413-1.599-5.413-2.716 0-1.035 3.258 0 6.199-3.175 2.576-2.781 2.249-6.81 3.296-6.81z"/><path d="m48.4983 139c.2895 0 .193.993 1.1822 2.088 1.1466 1.269 2.393 1.175 2.3161 1.474-.0563.219-1.3271-.232-2.6298.672-.9893.686-.7802 1.766-1.15 1.766-.2975 0-.354-.995-1.2224-1.766-.7801-.694-1.9944-.533-1.9944-.906 0-.345 1.2003 0 2.284-1.058.949-.927.8283-2.27 1.2143-2.27z"/><path d="m262.498 28c.29 0 .193.9927 1.182 2.0876 1.147 1.2692 2.394 1.1752 2.317 1.4744-.057.219-1.328-.2318-2.63.6716-.99.6861-.78 1.7664-1.15 1.7664-.298 0-.354-.9945-1.223-1.7664-.78-.6935-1.994-.5329-1.994-.9051 0-.345 1.2 0 2.284-1.0584.949-.927.828-2.2701 1.214-2.2701z"/></g></g></svg>