<svg fill="none" height="1152" viewBox="0 0 1837 1152" width="1837" xmlns="http://www.w3.org/2000/svg" xmlns:xlink="http://www.w3.org/1999/xlink"><clipPath id="a"><path d="m0 0h1837v1152h-1837z"/></clipPath><g clip-path="url(#a)"><path d="m8.35033 1739.96c-68.10083 71.16-179.76833 72.39-249.41633 2.74s-70.903-183.8-2.802-254.96l1367.278-1428.7421c68.1-71.1618 179.77-72.3889 249.42-2.7407 69.65 69.6478 70.9 183.7978 2.8 254.9598z" fill="#7368f8"/><path d="m1014.28 998.749c-27.656 28.901-73 29.391-101.281 1.113-28.282-28.281-28.791-74.633-1.138-103.53l748.349-781.992c27.66-28.896 73-29.3943 101.28-1.113 28.29 28.282 28.79 74.634 1.14 103.53z" fill="#29a42e"/></g></svg>