<svg fill="none" height="199" viewBox="0 0 149 199" width="149" xmlns="http://www.w3.org/2000/svg" xmlns:xlink="http://www.w3.org/1999/xlink"><clipPath id="a"><path d="m0 0h149v199h-149z"/></clipPath><g clip-path="url(#a)"><path d="m3.97779 179.136c-8.70779 8.901-22.82589 8.901-31.53369 0-8.7078-8.902-8.7078-23.333 0-32.235l128.9199-131.7839c8.707-8.90128 22.826-8.90128 31.533 0 8.708 8.9013 8.708 23.3331 0 32.2344z" fill="#fad166"/><path d="m47.3193 192.964c-3.4296 3.505-8.9902 3.505-12.4199 0-3.4296-3.506-3.4296-9.19 0-12.696l65.4316-66.886c3.43-3.506 8.99-3.506 12.42 0s3.43 9.19 0 12.696z" fill="#7368f8"/><path d="m-42.1284 128.534c-3.8425 3.928-10.0725 3.928-13.9151 0s-3.8426-10.296 0-14.224l81.0261-82.8266c3.8426-3.9279 10.0726-3.928 13.9152 0 3.8425 3.9279 3.8425 10.2964 0 14.2243z" fill="#29a42e"/><path d="m63.7115 21.1387c-3.8425 3.928-10.0726 3.928-13.9152.0001-3.8425-3.9279-3.8425-10.2965.0001-14.22441 3.8426-3.92794 10.0727-3.92802 13.9152-.00007 3.8426 3.92798 3.8425 10.29648-.0001 14.22438z" fill="#7368f8"/></g></svg>