<svg fill="none" height="246" viewBox="0 0 208 246" width="208" xmlns="http://www.w3.org/2000/svg" xmlns:xlink="http://www.w3.org/1999/xlink"><clipPath id="a"><path d="m0 0h208v246h-208z"/></clipPath><g clip-path="url(#a)"><path d="m160.95 10.2573c3.43-3.50597 8.991-3.50598 12.42 0 3.43 3.506 3.43 9.1902 0 12.6962l-53.629 54.8214c-3.43 3.5059-8.991 3.5059-12.421 0-3.429-3.506-3.429-9.1903 0-12.6962z" fill="#7368f8"/><path d="m355.918-59.1852c4.222-4.316 11.067-4.316 15.289 0 4.223 4.3161 4.223 11.3137 0 15.6297l-232.682 237.8525c-4.222 4.316-11.068 4.316-15.29 0s-4.222-11.313 0-15.629z" fill="#fad166"/><path d="m230.479-15.9854c8.708-8.9012 22.826-8.9012 31.534.0001 8.708 8.90125 8.708 23.33308 0 32.2344l-176.1718 180.0859c-8.7078 8.902-22.8259 8.902-31.5337 0-8.7078-8.901-8.7078-23.333 0-32.234z" fill="#29a42e"/><path d="m15.7649 203.499c8.7075-8.901 22.8257-8.9 31.5332.001s8.708 23.333.0005 32.234-22.8257 8.9-31.5332-.001c-8.70745-8.901-8.70797-23.333-.0005-32.234z" fill="#7368f8"/></g></svg>