<svg fill="none" height="104" viewBox="0 0 601 104" width="601" xmlns="http://www.w3.org/2000/svg"><g fill="#fefefe"><path d="m173.689 74.546c-7.71 0-14.936-1.7358-21.395-6.0146-5.651-3.7137-9.849-8.7191-12.433-14.9758-3.915-9.4861-4.198-19.1739-1.049-28.8618 3.229-9.8493 9.809-16.83265 19.457-20.78853 6.741-2.78526 13.765-3.390754 20.99-2.5027 5.773.68622 11.222 2.42197 16.107 5.65126 6.822 4.52097 11.343 10.69697 12.877 18.85097.282 1.5339.282 1.5339-1.292 1.7357-4.723.6055-9.486 1.1707-14.209 1.8165-.848.1211-.888-.4036-1.009-.8477-2.059-6.7411-6.822-10.6566-13.483-12.2713-5.853-1.4128-11.343-.2422-16.146 3.5119-3.189 2.5027-5.329 5.7723-6.499 9.6071-1.978 6.5393-1.817 13.0383 1.009 19.295 2.987 6.5797 9.446 11.2622 17.519 11.0603 5.005-.1211 9.325-1.8568 12.998-5.2072 2.26-2.0587 3.794-4.6421 4.683-7.5485.242-.7265.524-.9284 1.251-.8476 4.965.6458 9.93 1.2513 14.895 1.8568.646.0807.727.3229.606.9284-1.978 9.9301-7.912 16.7923-16.712 21.3537-5.611 2.9467-11.585 4.1981-18.165 4.1981z"/><path d="m485.525 37.7738c0-11.141 0-22.2417-.041-33.38277 0-.84769.162-1.13025 1.09-1.08989 5.127.04037 10.213.04037 15.34 0 .726 0 .968.1211.968.92842-.04 2.5027-.04 5.04577 0 7.54844 0 .323-.282.8073.364.8477.444.0404.969.2018 1.292-.444 1.937-3.83479 5.045-6.53932 8.88-8.31543 5.086-2.34124 10.294-2.58343 15.541-.52476.566.20183.646.52476.646 1.04952 0 4.72283-.04 9.48607 0 14.20887 0 .7266-.161.8477-.847.5651-3.109-1.1706-6.298-1.9375-9.608-2.0183-6.983-.2018-11.706 3.7137-14.29 9.809-1.372 3.1889-1.735 6.62-1.735 10.0511v34.1901c0 .8477-.202 1.0496-1.05 1.0496-5.207-.0404-10.414-.0404-15.622 0-.767 0-.928-.2019-.928-.9285 0-11.1814 0-22.3628 0-33.5442z"/><path d="m44.5545 19.4869c-2.3817-.9688-4.8037-1.5743-7.2661-1.978-3.6733-.6055-7.266-.4844-10.576 1.4129-4.0367 2.3412-6.4184 6.0145-7.6294 10.4548-.7266 2.5834-.9284 5.2072-.9284 7.8714v33.9882c0 .8073-.1615 1.0495-1.0495 1.0495-5.2073-.0403-10.41466-.0403-15.62198 0-.766965 0-.928432-.2018-.928432-.9284.080733-22.3628.080733-44.7256.040366-67.08844 0-.76696.121101-1.00916.968806-1.00916 5.12658.04037 10.29354.04037 15.42014 0 .8073 0 .9284.2422.9284.96879-.0404 2.46233-.0404 4.92466 0 7.34661 0 .3229-.2826.8881.2826 1.0092.5247.1211 1.0899.1211 1.4532-.5652 1.4532-2.86595 3.633-5.12645 6.3779-6.86219 5.611-3.47148 11.5046-4.23844 17.721-1.93757.6863.24219.8881.60549.8881 1.33208-.0404 4.6421 0 9.28418 0 13.92628-.0404.323-.0404.6055-.0807 1.0092z"/><path clip-rule="evenodd" d="m311.255 53.1839v.0119.012c0 16.3846 0 32.7289-.04 49.1132 0 .848.202 1.05 1.049 1.05 5.167-.041 10.375-.041 15.542 0 .888 0 1.089-.202 1.089-1.09-.04-12.5943-.04-25.2289-.04-37.8231 0-1.0092.242-1.211 1.13-1.0092.29.058.413.2614.535.4612.047.0786.095.1567.152.2251 1.978 2.7852 4.44 5.0457 7.387 6.7411 6.66 3.8348 13.846 4.5614 21.192 3.1486 11.949-2.3009 19.901-9.6475 24.341-20.8289 2.261-5.6513 2.947-11.5448 2.665-17.5997-.323-6.9833-2.059-13.563-5.813-19.5372-2.826-4.4402-6.499-7.99246-11.061-10.65662-6.378-3.71368-13.24-4.843934-20.506-4.07698-6.459.68623-11.989 3.31002-16.389 8.15396-.726.76694-1.413 1.61464-1.978 2.54304-.314.4884-.748.4341-1.147.3843-.063-.0078-.125-.0155-.185-.021-.469-.0312-.405-.3772-.353-.663.016-.0832.03-.1613.03-.225-.04-2.422-.04-4.84397 0-7.26594.04-.76695-.202-.92842-.928-.92842-5.208.04037-10.415.04037-15.622 0-.888 0-1.09.20183-1.09 1.08989.04 16.26357.04 32.52717.04 48.79077zm51.957-.1895c3.795-4.2788 5.531-9.4456 5.531-15.4198-.041-1.3725-.162-2.9468-.444-4.521-1.534-9.1631-8.962-16.0254-18.206-16.7923-8.517-.6863-16.308 3.8751-19.779 11.6254-2.665 5.9742-2.826 12.0695-.727 18.1648 1.292 3.7944 3.593 6.9429 6.822 9.4053 4.238 3.2292 9.082 4.3595 14.33 3.8751 4.965-.4844 9.163-2.6642 12.473-6.3375z" fill-rule="evenodd"/><path clip-rule="evenodd" d="m416.697 42.9824c8.961.0403 17.963.0403 26.925.0403 2.997 0 5.995-.0044 8.995-.0089 6.011-.009 12.033-.018 18.091.0089.807 0 1.09-.2018 1.13-1.0091.323-6.9026-.121-13.6841-2.947-20.1427-3.148-7.2659-8.235-12.7557-15.218-16.46938-5.692-3.02746-11.828-4.35954-18.246-4.35954-9.769-.04037-18.609 2.5027-26.157 9.00162-5.41 4.6825-8.881 10.4952-10.577 17.3574-1.897 7.71-1.655 15.4199.888 22.9684 2.14 6.4585 5.854 11.9483 11.263 16.2271 6.176 4.8843 13.321 7.3063 21.112 7.8714 7.023.4844 13.886-.3229 20.466-3.0274 7.467-3.0678 13.28-7.9118 16.631-15.4199.323-.6862.323-.888-.444-1.1302l-.001-.0003c-4.359-1.332-8.719-2.664-13.038-4.0767-.888-.2826-1.251-.0807-1.614.6459-.727 1.3724-1.696 2.6237-2.826 3.6733-4.763 4.4806-10.415 6.2567-16.833 5.8127-5.006-.3229-9.406-2.1394-12.917-5.8127-2.988-3.1082-4.683-6.8219-5.531-11.02-.202-.888-.161-1.1302.848-1.1302zm-.236-11.7873h18.245c6.055 0 12.151 0 18.287-.0404.645 0 .847-.0807.726-.8073-.605-3.0275-1.695-5.8531-3.592-8.3154-3.23-4.1577-7.509-6.5393-12.676-7.2659-4.4-.6055-8.598-.0404-12.473 2.2201-5.127 3.0275-7.993 7.6292-9.204 13.3612-.121.5651-.08.8477.687.8477z" fill-rule="evenodd"/><path clip-rule="evenodd" d="m75.9991 55.8949c-3.7138-3.4715-5.6917-7.831-6.4587-12.8768h1.1706 53.688c.067 0 .134-.0045.202-.009.134-.0089.269-.0179.403.009.525.0807.646-.2018.687-.6862.363-5.8127.161-11.6255-1.696-17.2364-2.26-6.8218-6.095-12.5538-11.908-16.83262-5.207-3.87515-11.061-6.13565-17.5192-6.86224-8.5174-1.009155-16.7522-.04037-24.4219 3.91551-9.1633 4.68247-15.0972 12.10985-17.5596 22.08025-2.1798 8.7191-1.5743 17.3978 1.978 25.7536 2.8257 6.62 7.266 11.908 13.4018 15.7024 4.7229 2.9467 9.8495 4.6825 15.3797 5.3283 9.4055 1.1303 18.4882-.0403 26.8842-4.6017 5.974-3.2293 10.455-7.9118 12.998-14.3703l-14.29-4.4807c-.565-.1614-.726.1211-.928.4844-1.292 2.3009-3.068 4.1981-5.207 5.7724-4.4811 3.2293-9.527 4.3595-14.9765 3.9558-4.4807-.3633-8.5174-1.9779-11.8274-5.0457zm-5.4872-24.7019h18.044c1.0495 0 2.0991 0 3.189-.0403h15.1371c.062 0 .134.0101.211.0207.328.0457.728.1014.597-.5859-.888-4.8439-3.109-8.9612-7.064-12.0291-3.472-2.7045-7.4683-3.9155-11.8279-3.9962-5.3284-.1211-10.011 1.5743-13.7651 5.4091-2.8257 2.8659-4.4403 6.3778-5.3284 10.2529-.2018.8881.0404.9688.8073.9688z" fill-rule="evenodd"/><path clip-rule="evenodd" d="m600.854 47.7481v-.0044c0-1.6843.002-3.3712.005-5.0593.007-5.0682.015-10.1477-.046-15.2045 0-1.6146-.04-3.2293-.282-4.8439-1.211-7.9118-5.531-13.64377-12.474-17.43818-4.036-2.22014-8.436-3.39075-13.038-3.87515-7.387-.726586-14.694-.363292-21.596 2.58343-9.083 3.87515-14.452 10.5356-14.896 20.7078-.04.7266.081.9688.888.9688 5.127-.0404 10.294-.0404 15.421 0 .807 0 .888-.2826.928-.9688.202-4.5614 3.027-8.275 7.387-9.6878 3.512-1.1303 7.064-1.2514 10.657-.4441 3.875.8881 6.862 2.9468 8.517 6.7008.801 1.8103.851 3.7107.902 5.6235.008.3051.016.6104.027.9158.04.9284-.202 1.211-1.131 1.3321-5 .5343-9.964 1.1409-14.96 1.7513-.287.0352-.575.0704-.863.1055-5.894.7266-11.666 1.9376-17.116 4.3999-4.359 1.9376-8.315 4.521-10.899 8.6384-3.552 5.6512-3.956 11.7062-1.534 17.8418 2.422 6.0146 7.387 9.2439 13.362 11.02 4.884 1.4531 9.93 1.5742 14.976.8073 5.005-.767 9.526-2.5834 13.28-6.0549 1.252-1.1707 2.342-2.422 3.27-3.8348.363-.4844.767-.6459 1.292-.5248.491.1229.422.4559.361.7505-.02.0926-.038.1814-.038.2587.04 2.3412.04 4.7228 0 7.0641-.041.7669.161 1.0091.969 1.0091 5.207-.0404 10.414-.0404 15.621 0 .848 0 1.05-.2018 1.05-1.0495-.04-7.8296-.04-15.6591-.04-23.4887zm-19.466 5.3639c1.534-2.7853 1.938-5.8127 1.857-8.5172 0-.5034-.005-.9556-.01-1.3766-.008-.7605-.016-1.4194.01-2.0949.041-.6055-.121-.7266-.726-.6459-1.794.2147-3.592.4097-5.39.6047-3.947.4282-7.896.8564-11.807 1.4943-3.754.6055-7.306 1.6954-10.213 4.4-2.502 2.3816-3.39 6.5796-1.856 9.6475 1.211 2.4219 3.269 3.8347 5.772 4.521 5.207 1.4935 10.334 1.0495 15.218-1.2918 3.109-1.4935 5.49-3.7136 7.145-6.7411z" fill-rule="evenodd"/></g><path d="m297.184 63.661c0 6.2292-5.05 11.2789-11.279 11.2789-6.23 0-11.279-5.0497-11.279-11.2789v-51.7985c0-6.22917 5.049-11.278929 11.279-11.278929 6.229.000001 11.279 5.049759 11.279 11.278929z" fill="#fad166"/><path d="m243.122 63.971c-.035 6.2041-5.074 11.215-11.278 11.215-6.254 0-11.314-5.0886-11.279-11.3425l.29-51.3811c.035-6.2041 5.075-11.21501 11.279-11.21501 6.254 0 11.314 5.0886 11.278 11.34251z" fill="#29a42e"/><rect fill="#fefefe" height="22.9791" rx="11.4896" transform="matrix(-1 0 0 1 243.477 1.00146)" width="22.9795"/><rect fill="#fefefe" height="22.5576" rx="11.2788" transform="matrix(-1 0 0 1 270.359 52.7998)" width="22.5579"/><rect fill="#fefefe" height="22.5576" rx="11.2788" transform="matrix(-1 0 0 1 297.184 .583496)" width="22.5579"/></svg>