<svg fill="none" height="35" viewBox="0 0 201 35" width="201" xmlns="http://www.w3.org/2000/svg"><g fill="#7368f8"><path d="m51.0402 22.546c-2.2731 0-4.4034-.5054-6.3076-1.7513-1.6662-1.0814-2.9039-2.5389-3.6655-4.3608-1.1545-2.7622-1.2378-5.5831-.3095-8.40409.9521-2.86798 2.892-4.90143 5.7364-6.05332 1.9874-.81103 4.0582-.987342 6.1885-.72875 1.7019.19981 3.3085.70524 4.7486 1.64556 2.0112 1.31645 3.3442 3.11482 3.7964 5.48913.0833.44665.0833.44665-.3808.50542-1.3925.17631-2.7968.34087-4.1892.52893-.2499.03527-.2618-.11754-.2975-.24683-.607-1.96292-2.0113-3.10306-3.975-3.57322-1.7257-.4114-3.3442-.07053-4.7604 1.0226-.9402.72875-1.571 1.68082-1.9161 2.79745-.5832 1.90412-.5356 3.79652.2975 5.61842.8807 1.9159 2.7849 3.2794 5.1651 3.2206 1.4757-.0353 2.7491-.5407 3.8321-1.5163.6665-.5994 1.1187-1.3517 1.3806-2.198.0714-.2115.1547-.2703.3689-.2468 1.4638.1881 2.9277.3644 4.3915.5407.1904.0235.2142.094.1785.2703-.5831 2.8915-2.3326 4.8897-4.927 6.2179-1.6543.8581-3.4157 1.2224-5.3555 1.2224z"/><path d="m142.979 11.8387c0-3.2441 0-6.47645-.011-9.72057 0-.24683.047-.32911.321-.31735 1.511.01175 3.011.01175 4.522 0 .215 0 .286.03526.286.27034-.012.72875-.012 1.46925 0 2.198 0 .09403-.083.23508.107.24684.131.01175.286.05877.381-.1293.571-1.11663 1.488-1.90415 2.618-2.42133 1.5-.68173 3.035-.75226 4.582-.1528.167.05877.19.1528.19.3056 0 1.37523-.011 2.7622 0 4.13742 0 .21157-.047.24684-.249.16456-.917-.34087-1.857-.5642-2.833-.5877-2.059-.05877-3.451 1.08137-4.213 2.85622-.405.92857-.512 1.92767-.512 2.92677v9.9556c0 .2469-.059.3057-.309.3057-1.535-.0118-3.071-.0118-4.606 0-.226 0-.274-.0588-.274-.2704 0-3.2559 0-6.5117 0-9.7676z"/><path d="m12.9722 6.51395c-.7022-.2821-1.4162-.45841-2.1422-.57595-1.08301-.17631-2.1422-.14105-3.11809.41139-1.19011.68173-1.89228 1.75135-2.24931 3.04429-.21422.75222-.27372 1.51632-.27372 2.29202v9.8969c0 .2351-.04761.3056-.30943.3056-1.53524-.0117-3.07048-.0117-4.605725 0-.2261206 0-.273725-.0588-.273725-.2703.0238022-6.5118.0238022-13.02349.0119011-19.53522 0-.22333.0357033-.29385.2856259-.29385 1.511443.01175 3.034783.01175 4.546213 0 .23803 0 .27373.07052.27373.2821-.0119.71699-.0119 1.43399 0 2.13923 0 .09403-.08331.25859.08331.29385.15471.03526.32133.03526.42844-.16456.42844-.83453 1.07109-1.49276 1.88037-1.99818 1.65425-1.01085 3.39181-1.23417 5.22461-.5642.2023.07053.2618.17631.2618.38789-.0119 1.35171 0 2.70342 0 4.05514-.0119.09403-.0119.17631-.0238.29385z"/><g clip-rule="evenodd" fill-rule="evenodd"><path d="m91.6012 16.3266v.0069c0 4.771-.0001 9.5302-.0119 14.3012 0 .2468.0595.3056.3094.3056 1.5233-.0118 3.0586-.0118 4.5819 0 .2618 0 .3213-.0588.3213-.3174-.0119-3.6672-.0119-7.3462-.0119-11.0135 0-.2938.0714-.3526.3333-.2938.0854.0168.1217.0761.1574.1342.0141.0229.0281.0457.0449.0656.5831.811 1.3091 1.4692 2.1779 1.9629 1.9635 1.1166 4.0825 1.3282 6.2485.9168 3.522-.67 5.867-2.8092 7.176-6.0651.666-1.6455.869-3.3616.785-5.1247-.095-2.03346-.607-3.94937-1.713-5.68897-.833-1.29294-1.916-2.32729-3.261-3.10306-1.881-1.08137-3.904-1.41048-6.046-1.18716-1.904.19982-3.5347.96383-4.8319 2.37432-.2142.22332-.4165.47016-.5831.7405-.0926.14221-.2207.12641-.3383.11191-.0185-.00228-.0367-.00453-.0545-.00612-.1382-.00911-.1194-.10985-.1039-.19305.0045-.02423.0087-.04698.0087-.06554-.0119-.70524-.0119-1.41049 0-2.11573.0119-.22332-.0595-.27034-.2737-.27034-1.5352.01175-3.0705.01175-4.6057 0-.2618 0-.3213.05877-.3213.31736.0118 4.73572.0119 9.47148.0119 14.20718zm15.3168-.0551c1.119-1.2459 1.631-2.7504 1.631-4.49-.012-.3996-.048-.8581-.131-1.3165-.453-2.66812-2.642-4.66631-5.368-4.88964-2.511-.19981-4.8078 1.12839-5.8313 3.38516-.7854 1.73958-.833 3.51448-.2142 5.28928.3808 1.1049 1.0592 2.0217 2.0113 2.7387 1.2492.9403 2.6782 1.2695 4.2252 1.1284 1.464-.141 2.701-.7758 3.677-1.8454z"/><path d="m122.688 13.3557c2.642.0117 5.296.0117 7.938.0117.884 0 1.767-.0013 2.652-.0026 1.772-.0026 3.547-.0052 5.334.0026.238 0 .321-.0587.333-.2938.095-2.01-.036-3.98464-.869-5.86528-.928-2.11573-2.428-3.71428-4.487-4.79565-1.678-.88155-3.487-1.26943-5.379-1.26943-2.88-.01176-5.486.72875-7.712 2.62115-1.595 1.36346-2.618 3.05604-3.118 5.05423-.559 2.24498-.488 4.49008.262 6.68808.631 1.8806 1.725 3.4792 3.32 4.7251 1.821 1.4222 3.928 2.1275 6.224 2.292 2.071.1411 4.094-.094 6.034-.8815 2.202-.8933 3.916-2.3038 4.904-4.4901.095-.1998.095-.2586-.131-.3291-1.286-.3879-2.571-.7758-3.844-1.1871-.262-.0823-.369-.0236-.476.188-.215.3997-.5.764-.834 1.0696-1.404 1.3047-3.07 1.8219-4.962 1.6926-1.476-.094-2.773-.6229-3.809-1.6926-.88-.905-1.38-1.9864-1.63-3.2088-.06-.2586-.048-.3291.25-.3291zm-.07-3.43265h5.379c1.785 0 3.582 0 5.391-.01176.191 0 .25-.02351.214-.23508-.178-.88155-.499-1.70433-1.059-2.42133-.952-1.21066-2.213-1.90415-3.737-2.11572-1.297-.17631-2.535-.01176-3.677.64647-1.512.88155-2.357 2.22151-2.714 3.89058-.035.16456-.023.24684.203.24684z"/><path d="m22.2428 17.1151c-1.0949-1.0109-1.678-2.2803-1.9041-3.7495h16.1735c.0199 0 .0397-.0014.0596-.0027.0396-.0026.0793-.0052.119.0027.1547.0235.1904-.0588.2023-.1999.1071-1.6925.0476-3.38513-.4999-5.01894-.6664-1.98643-1.797-3.6555-3.5108-4.90143-1.5352-1.12838-3.2609-1.78661-5.1651-1.99818-2.5111-.29385-4.9389-.01175-7.2001 1.14014-2.7016 1.36347-4.451 3.52621-5.177 6.42945-.6426 2.53886-.4641 5.06596.5832 7.49906.833 1.9277 2.1422 3.4674 3.9511 4.5723 1.3925.8581 2.9039 1.3635 4.5343 1.5516 2.773.3291 5.4507-.0118 7.9262-1.34 1.7613-.9403 3.0823-2.3038 3.8321-4.1844l-4.213-1.3047c-.1666-.047-.2142.0352-.2737.141-.3808.67-.9045 1.2224-1.5352 1.6808-1.3211.9404-2.8087 1.2695-4.4153 1.1519-1.3211-.1057-2.5112-.5759-3.4871-1.4692zm-1.6126-7.19297h5.3198c.3094 0 .6188 0 .9401-.01175h4.463c.018 0 .0394.00294.062.00605.0967.0133.2146.02951.176-.17061-.2618-1.41048-.9164-2.60939-2.0827-3.5027-1.0235-.78752-2.2017-1.14014-3.487-1.16365-1.571-.03526-2.9515.45841-4.0583 1.57504-.8331.83454-1.3091 1.85714-1.5709 2.98552-.0596.25859.0119.2821.238.2821z"/><path d="m176.988 14.7432v-.0012c0-.4905.001-.9816.002-1.4732.002-1.4758.004-2.9549-.014-4.42737 0-.47016-.012-.94032-.083-1.41048-.357-2.30379-1.631-3.97286-3.678-5.07774-1.19-.64647-2.487-.98734-3.844-1.12839-2.177-.21157-4.332-.10578-6.367.75226-2.677 1.12839-4.26 3.0678-4.391 6.02982-.012.21157.024.28209.262.28209 1.511-.01175 3.034-.01175 4.546 0 .238 0 .262-.08227.274-.28209.059-1.32821.892-2.40958 2.177-2.82097 1.036-.32911 2.083-.36437 3.142-.12929 1.143.25859 2.024.85804 2.511 1.95117.237.52714.251 1.0805.266 1.63748.003.08883.005.17775.008.26667.012.27034-.059.35262-.333.38788-1.474.15559-2.938.3322-4.411.50996-.084.01024-.169.02048-.254.03073-1.738.21157-3.44.56417-5.046 1.28117-1.286.5642-2.452 1.3165-3.214 2.5154-1.047 1.6455-1.166 3.4086-.452 5.1953.714 1.7513 2.178 2.6916 3.939 3.2088 1.44.4232 2.928.4584 4.416.2351 1.475-.2233 2.808-.7523 3.915-1.7631.369-.3409.69-.7053.964-1.1167.107-.141.226-.188.381-.1528.145.0358.124.1328.106.2186-.005.0269-.011.0528-.011.0753.012.6817.012 1.3752 0 2.057-.012.2233.048.2938.286.2938 1.535-.0117 3.07-.0117 4.606 0 .249 0 .309-.0588.309-.3056-.012-2.2799-.012-4.5597-.012-6.8396zm-5.741 1.5614c.452-.811.571-1.6925.547-2.4801 0-.1465-.001-.2782-.002-.4008-.003-.2214-.005-.4133.002-.61.012-.1763-.035-.2116-.214-.1881-.529.0626-1.059.1193-1.589.1761-1.163.1247-2.328.2494-3.481.4351-1.106.1763-2.154.4937-3.011 1.2812-.737.6935-.999 1.9159-.547 2.8092.357.7053.964 1.1167 1.702 1.3165 1.535.4349 3.046.3056 4.487-.3761.916-.4349 1.618-1.0814 2.106-1.963z"/></g><path d="m87.4939 4.34499c0-1.84739-1.5163-3.34499-3.3867-3.34499-1.8705 0-3.3868 1.4976-3.3868 3.34499 0 1.84738 1.5163 3.34498 3.3868 3.34498 1.8704 0 3.3867-1.4976 3.3867-3.34498z"/><path d="m80.7179 7.35335v11.83135c0 1.8474 1.5163 3.345 3.3867 3.345 1.8705 0 3.3868-1.4976 3.3868-3.345v-11.83071c-.8338.91483-2.0421 1.49004-3.3865 1.49004-1.3447 0-2.5532-.57548-3.387-1.49068z"/><path d="m71.6665 4.46025c0-1.84738-1.5163-3.34498-3.3868-3.34498-1.8704 0-3.3867 1.4976-3.3867 3.34498s1.5163 3.34499 3.3867 3.34499c1.8705 0 3.3868-1.49761 3.3868-3.34499z"/><path d="m64.8913 7.4687v11.8313c0 1.8474 1.5163 3.345 3.3867 3.345 1.8705 0 3.3868-1.4976 3.3868-3.345v-11.83066c-.8338.91483-2.0421 1.49005-3.3865 1.49005-1.3446 0-2.5532-.57549-3.387-1.49069z"/><path d="m79.5428 19.4983c0-1.8138-1.4888-3.2842-3.3253-3.2842s-3.3253 1.4704-3.3253 3.2842c0 1.8139 1.4888 3.2843 3.3253 3.2843s3.3253-1.4704 3.3253-3.2843z"/></g></svg>