<svg fill="none" height="180" viewBox="0 0 860 180" width="860" xmlns="http://www.w3.org/2000/svg"><g fill="#f4f4f4"><path d="m284.959 133.652c-8.796 0-17.039-1.98-24.407-6.861-6.447-4.237-11.237-9.947-14.184-17.084-4.467-10.8221-4.789-21.8738-1.197-32.9256 3.684-11.2362 11.19-19.2027 22.196-23.7156 7.691-3.1774 15.703-3.8681 23.946-2.855 6.586.7828 12.802 2.7629 18.374 6.4469 7.783 5.1575 12.94 12.2031 14.69 21.5051.323 1.7498.323 1.7498-1.473 1.9801-5.389.6907-10.823 1.3354-16.21 2.0721-.967.1383-1.013-.4604-1.151-.967-2.349-7.6903-7.782-12.1569-15.381-13.9989-6.677-1.6118-12.94-.2763-18.42 4.0062-3.638 2.8551-6.079 6.5852-7.414 10.9597-2.257 7.4602-2.072 14.8741 1.151 22.012 3.408 7.506 10.776 12.848 19.986 12.617 5.71-.138 10.638-2.118 14.828-5.94 2.579-2.348 4.329-5.296 5.342-8.611.276-.829.599-1.059 1.427-.967 5.664.736 11.328 1.427 16.993 2.118.737.092.83.368.692 1.059-2.258 11.328-9.027 19.157-19.066 24.36-6.401 3.362-13.216 4.789-20.722 4.789z"/><path d="m640.709 91.7036c0-12.7095 0-25.3732-.045-38.0828 0-.9671.183-1.2894 1.243-1.2433 5.849.046 11.651.046 17.498 0 .83 0 1.105.1381 1.105 1.0591-.045 2.8551-.045 5.7562 0 8.6112 0 .3684-.323.921.415.9671.508.046 1.105.2302 1.473-.5066 2.211-4.3747 5.757-7.46 10.133-9.4861 5.802-2.6709 11.741-2.9472 17.728-.5987.645.2302.737.5987.737 1.1973 0 5.3878-.045 10.8216 0 16.2094 0 .8289-.185.967-.967.6447-3.546-1.3355-7.183-2.2104-10.959-2.3025-7.967-.2302-13.356 4.2365-16.302 11.19-1.565 3.6379-1.981 7.5522-1.981 11.4664v39.0042c0 .967-.23 1.197-1.197 1.197-5.94-.046-11.881-.046-17.821 0-.875 0-1.06-.23-1.06-1.059 0-12.756 0-25.512 0-38.2674z"/><path d="m137.658 70.8414c-2.717-1.1052-5.48-1.7959-8.289-2.2564-4.191-.6907-8.289-.5526-12.065 1.6117-4.606 2.671-7.322 6.8615-8.704 11.9267-.829 2.9474-1.059 5.9405-1.059 8.9797v38.7739c0 .921-.184 1.197-1.197 1.197-5.941-.046-11.8815-.046-17.8219 0-.875 0-1.0592-.23-1.0592-1.059.0921-25.511.0921-51.0227.046-76.5342 0-.8749.1382-1.1512 1.1053-1.1512 5.8483.046 11.7428.046 17.5908 0 .921 0 1.06.2763 1.06 1.1051-.047 2.8091-.047 5.6181 0 8.381 0 .3684-.323 1.0131.322 1.1513.599.1381 1.243.1381 1.658-.6447 1.658-3.2695 4.144-5.8483 7.276-7.8284 6.401-3.9603 13.124-4.8352 20.216-2.2104.783.2763 1.013.6907 1.013 1.5196-.046 5.2957 0 10.5914 0 15.8871-.046.3684-.046.6907-.092 1.1512z"/><g clip-rule="evenodd" fill-rule="evenodd"><path d="m441.904 109.287v.014.013c0 18.692 0 37.337-.045 56.029 0 .967.23 1.197 1.198 1.197 5.894-.046 11.834-.046 17.728 0 1.013 0 1.243-.23 1.243-1.243-.045-14.368-.045-28.781-.045-43.148 0-1.152.277-1.382 1.29-1.152.329.066.472.298.609.526.054.09.108.179.174.257 2.256 3.177 5.064 5.756 8.427 7.69 7.598 4.375 15.795 5.204 24.175 3.592 13.631-2.625 22.704-11.006 27.768-23.761 2.581-6.447 3.363-13.1705 3.041-20.0778-.368-7.9666-2.348-15.4726-6.632-22.288-3.223-5.0654-7.415-9.1178-12.619-12.157-7.274-4.2366-15.104-5.526-23.392-4.651-7.369.7828-13.676 3.776-18.697 9.302-.828.8749-1.611 1.8419-2.256 2.9011-.359.5571-.853.4952-1.308.4384-.073-.0089-.143-.0177-.213-.024-.534-.0356-.462-.4303-.401-.7563.018-.0949.034-.184.034-.2568-.045-2.7629-.045-5.5259 0-8.2889.045-.8749-.23-1.0591-1.058-1.0591-5.942.046-11.881.046-17.823 0-1.013 0-1.243.2302-1.243 1.2433.045 18.5535.045 37.1069.045 55.6601zm59.27-.214c4.329-4.882 6.309-10.7761 6.309-17.5914-.045-1.5657-.185-3.3615-.505-5.1575-1.75-10.4533-10.225-18.2816-20.771-19.1566-9.715-.7828-18.603 4.4208-22.564 13.2623-3.038 6.8153-3.223 13.7686-.828 20.7222 1.473 4.329 4.099 7.921 7.782 10.73 4.835 3.683 10.361 4.973 16.348 4.42 5.664-.552 10.453-3.039 14.229-7.229z"/><path d="m562.194 97.6479c10.223.046 20.494.046 30.717.046 3.419 0 6.839-.0052 10.263-.0101 6.855-.0104 13.726-.0206 20.636.0101.922 0 1.245-.2303 1.29-1.1513.368-7.8744-.138-15.6106-3.361-22.9785-3.594-8.289-9.395-14.5517-17.363-18.7883-6.492-3.4537-13.491-4.9733-20.813-4.9733-11.146-.0461-21.229 2.8551-29.841 10.269-6.172 5.3417-10.131 11.9729-12.066 19.8012-2.164 8.7955-1.888 17.5909 1.015 26.2023 2.44 7.368 6.677 13.631 12.846 18.512 7.047 5.572 15.197 8.335 24.085 8.979 8.012.553 15.842-.368 23.347-3.453 8.519-3.5 15.151-9.026 18.973-17.591.369-.783.369-1.013-.506-1.29-4.971-1.519-9.948-3.039-14.874-4.65-1.013-.323-1.428-.093-1.843.736-.828 1.566-1.933 2.993-3.223 4.191-5.435 5.111-11.881 7.137-19.204 6.631-5.709-.368-10.728-2.441-14.734-6.631-3.408-3.546-5.344-7.783-6.309-12.5717-.23-1.0131-.185-1.2894.965-1.2894zm-.271-13.4474h20.814c6.907 0 13.862 0 20.861-.046.738 0 .968-.092.828-.921-.69-3.4538-1.933-6.6772-4.096-9.4863-3.686-4.743-8.568-7.4599-14.462-8.2888-5.019-.6907-9.808-.046-14.229 2.5327-5.849 3.4537-9.118 8.7035-10.498 15.2424-.14.6447-.093.967.782.967z"/><path d="m173.529 112.374c-4.237-3.96-6.493-8.933-7.368-14.6896h1.335 61.247c.077 0 .154-.0052.231-.0103.153-.0102.307-.0203.46.0103.599.0921.737-.2303.783-.7829.414-6.631.184-13.2622-1.934-19.6631-2.579-7.7823-6.954-14.3214-13.585-19.2026-5.941-4.4207-12.618-6.9995-19.986-7.8284-9.716-1.1512-19.111-.0461-27.86 4.4668-10.454 5.3417-17.223 13.8148-20.032 25.189-2.487 9.9467-1.796 19.8473 2.256 29.3798 3.224 7.552 8.289 13.584 15.289 17.913 5.388 3.362 11.236 5.342 17.545 6.078 10.73 1.29 21.091-.046 30.67-5.249 6.815-3.684 11.927-9.026 14.828-16.394l-16.302-5.111c-.645-.185-.829.138-1.059.552-1.474 2.625-3.5 4.79-5.941 6.585-5.111 3.684-10.868 4.974-17.084 4.513-5.112-.414-9.717-2.256-13.493-5.756zm-6.241-28.1793h20.584c1.198 0 2.395 0 3.638-.0461h17.269c.07 0 .153.0116.24.0237.375.0521.831.1158.681-.6683-1.013-5.5259-3.546-10.223-8.058-13.7228-3.961-3.0853-8.52-4.4668-13.493-4.5589-6.079-.1381-11.421 1.7959-15.704 6.1706-3.223 3.2695-5.065 7.2759-6.078 11.6967-.23 1.013.046 1.1051.921 1.1051z"/><path d="m772.303 103.082v-.005c0-1.922.004-3.8458.007-5.7715.009-5.7819.018-11.5767-.052-17.3455 0-1.8421-.045-3.6841-.323-5.5259-1.38-9.0258-6.309-15.5648-14.229-19.8934-4.606-2.5327-9.625-3.8682-14.874-4.4208-8.428-.8289-16.763-.4144-24.638 2.9472-10.36 4.4207-16.484 12.0189-16.992 23.6234-.045.8288.093 1.1051 1.013 1.1051 5.849-.046 11.743-.046 17.592 0 .921 0 1.013-.3224 1.058-1.1051.23-5.2038 3.454-9.4402 8.428-11.0519 4.006-1.2894 8.06-1.4276 12.156-.5066 4.421 1.0131 7.83 3.3617 9.718 7.6443.913 2.0652.97 4.2332 1.028 6.4151.009.3481.018.6964.032 1.0449.045 1.0591-.232 1.3814-1.29 1.5195-5.705.6097-11.367 1.3015-17.067 1.9979-.327.0401-.657.0803-.986.1204-6.722.829-13.309 2.2104-19.526 5.0195-4.971 2.2104-9.485 5.1575-12.433 9.8544-4.052 6.447-4.512 13.354-1.749 20.354 2.764 6.861 8.428 10.545 15.242 12.571 5.572 1.658 11.329 1.796 17.085.921 5.71-.875 10.869-2.947 15.15-6.907 1.428-1.335 2.671-2.763 3.731-4.375.415-.552.875-.736 1.473-.598.562.14.483.52.413.856-.023.106-.043.207-.043.295.045 2.671.045 5.388 0 8.059-.048.874.183 1.151 1.103 1.151 5.942-.046 11.881-.046 17.822 0 .968 0 1.198-.23 1.198-1.197-.047-8.932-.047-17.864-.047-26.796zm-22.212 6.117c1.75-3.177 2.21-6.631 2.118-9.7163 0-.5741-.007-1.09-.012-1.5702-.011-.8676-.018-1.6192.012-2.39.045-.6907-.138-.8287-.83-.7367-2.046.245-4.097.4674-6.147.6898-4.505.4884-9.01.977-13.469 1.7047-4.284.6907-8.335 1.934-11.651 5.0197-2.856 2.717-3.869 7.506-2.118 11.005 1.38 2.764 3.729 4.375 6.584 5.158 5.94 1.704 11.789 1.197 17.36-1.473 3.546-1.704 6.265-4.237 8.153-7.691z"/></g><path d="m399.808 62.345c0-7.2376 5.867-13.1048 13.105-13.1048 7.237 0 13.105 5.8672 13.105 13.1048s-5.868 13.1049-13.105 13.1049c-7.238 0-13.105-5.8673-13.105-13.1049z"/><path clip-rule="evenodd" d="m399.795 74.1271v46.3569c0 7.238 5.867 13.105 13.106 13.105 7.236 0 13.103-5.867 13.103-13.105v-46.3472c-3.225 3.5821-7.899 5.834-13.099 5.834-5.206 0-9.882-2.256-13.11-5.8437z" fill-rule="evenodd"/><path d="m338.56 62.7966c0-7.2376 5.867-13.1048 13.105-13.1048 7.237 0 13.105 5.8672 13.105 13.1048s-5.868 13.1048-13.105 13.1048c-7.238 0-13.105-5.8672-13.105-13.1048z"/><path clip-rule="evenodd" d="m338.555 74.5787v46.3573c0 7.237 5.867 13.104 13.103 13.104 7.239 0 13.106-5.867 13.106-13.104v-46.3476c-3.226 3.5821-7.899 5.834-13.101 5.834-5.204 0-9.883-2.256-13.108-5.8437z" fill-rule="evenodd"/><path d="m382.381 108.845c7.106 0 12.867 5.761 12.867 12.867s-5.761 12.867-12.867 12.867c-7.106 0-12.867-5.761-12.867-12.867s5.761-12.867 12.867-12.867z"/></g></svg>