<svg fill="none" viewBox="0 0 1080 245" xmlns="http://www.w3.org/2000/svg" xmlns:xlink="http://www.w3.org/1999/xlink"><linearGradient id="a"><stop offset="0" stop-color="#3f4242" stop-opacity="0"/><stop offset=".15" stop-color="#3f4242"/><stop offset=".718069" stop-color="#3f4242"/><stop offset="1" stop-color="#3f4242" stop-opacity="0"/></linearGradient><linearGradient id="b" gradientUnits="userSpaceOnUse" x1="-.5" x2="-1.31142" xlink:href="#a" y1="0" y2="244.997"/><linearGradient id="c" gradientUnits="userSpaceOnUse" x1="107.398" x2="106.587" xlink:href="#a" y1="0" y2="244.997"/><linearGradient id="d" gradientUnits="userSpaceOnUse" x1="215.301" x2="214.489" xlink:href="#a" y1="0" y2="244.997"/><linearGradient id="e" gradientUnits="userSpaceOnUse" x1="323.199" x2="322.388" xlink:href="#a" y1="0" y2="244.997"/><linearGradient id="f" gradientUnits="userSpaceOnUse" x1="431.102" x2="430.29" xlink:href="#a" y1="0" y2="244.997"/><linearGradient id="g" gradientUnits="userSpaceOnUse" x1="539" x2="538.189" xlink:href="#a" y1="0" y2="244.997"/><linearGradient id="h" gradientUnits="userSpaceOnUse" x1="646.898" x2="646.087" xlink:href="#a" y1="0" y2="244.997"/><linearGradient id="i" gradientUnits="userSpaceOnUse" x1="754.801" x2="753.989" xlink:href="#a" y1="0" y2="244.997"/><linearGradient id="j" gradientUnits="userSpaceOnUse" x1="862.699" x2="861.888" xlink:href="#a" y1="0" y2="244.997"/><linearGradient id="k" gradientUnits="userSpaceOnUse" x1="970.602" x2="969.79" xlink:href="#a" y1="0" y2="244.997"/><linearGradient id="l" gradientUnits="userSpaceOnUse" x1="1078.5" x2="1077.69" xlink:href="#a" y1="0" y2="244.997"/><path d="m.5 0-.000011 245" stroke="url(#b)"/><path d="m108.398 0v245" stroke="url(#c)"/><path d="m216.301 0v245" stroke="url(#d)"/><path d="m324.199 0v245" stroke="url(#e)"/><path d="m432.102 0v245" stroke="url(#f)"/><path d="m540 0v245" stroke="url(#g)"/><path d="m647.898 0v245" stroke="url(#h)"/><path d="m755.801 0v245" stroke="url(#i)"/><path d="m863.699 0v245" stroke="url(#j)"/><path d="m971.602 0v245" stroke="url(#k)"/><path d="m1079.5 0v245" stroke="url(#l)"/></svg>