<svg fill="none" height="99" viewBox="0 0 684 99" width="684" xmlns="http://www.w3.org/2000/svg" xmlns:xlink="http://www.w3.org/1999/xlink"><clipPath id="a"><path d="m301.055 19.9033h382.002v76.2418h-382.002z"/></clipPath><path clip-rule="evenodd" d="m0 27.5773v4.8337c0 5.9872 4.89151 14.3638 13.1715 17.2201 0 0 .0615.0239.1761.0686-.1146.0447-.176.0687-.176.0687-8.28009 2.8562-13.1716 11.2603-13.1716 17.22v4.8337c0 15.6546 12.871 23.3171 25.4686 23.3171 7.5869 0 14.9706-3.0883 19.8255-9.1171 4.8545 6.0469 12.2491 9.1446 19.8475 9.1446 12.5977 0 25.4686-7.69 25.4686-23.3171v-4.8337c0-5.9597-4.8915-14.3638-13.1442-17.22-.0025-.0026-.0908-.0384-.2512-.1022.1489-.0585.2296-.0901.2296-.0901 8.28-2.8563 13.1442-11.2328 13.1442-17.22v-4.8063c.0273-15.6271-12.8437-23.31705-25.4413-23.31705-7.6205 0-14.9865 3.09411-19.8394 9.13425-4.8528-6.04014-12.2188-9.13425-19.8393-9.13425-12.5976 0-25.4686 7.68995-25.4686 23.31705zm50.9646 3.7074c.0004-.0125.0125-.3741 0-.9956v-.4597c.6559-9.3928 7.4603-13.8969 14.3193-13.8969 6.941 0 14.0187 3.9823 14.0187 11.6448v4.8337c0 6.2619-6.3398 11.123-14.7292 12.2216 0 0-.0001.0101-.0003.0297-.0018-.0007-.0036-.0015-.0054-.0022-.0585 0-.0544 2.8903-.038 5.5797-.0102 2.2458-.0074 4.3439.0376 4.4915.0003.0234.0004.0356.0004.0356 8.362 1.126 14.7292 5.9597 14.7292 12.2215v4.8337c0 7.69-7.0777 11.6723-14.0187 11.6723-6.7642 0-13.5283-4.3804-14.3432-13.5099.0545-1.1611.0296-1.8701.0296-1.8701zm-11.2862-1.8177c-.7793-9.1462-7.5762-13.5345-14.3464-13.5345-6.941 0-14.0187 3.9549-14.0187 11.6448v4.8612c0 6.2618 6.3399 11.123 14.7292 12.2215.0548-.0137.0547 2.5237.0409 5.0591.0138 2.5386.0139 5.0753-.0409 5.0478-8.3893 1.0985-14.7292 5.9597-14.7292 12.2215v4.8337c0 7.69 7.0777 11.6723 14.0187 11.6723 6.8591 0 13.6634-4.4492 14.3193-13.842v-.2771c-.0217-.7782-.0057-1.2334-.0057-1.2334l.0057.0008v-36.8577-.9887c.0046-.2394.013-.5175.0271-.8293zm82.6096-25.15065c-12.27 0-23.4738 6.61885-23.4738 21.20235v47.925c0 14.556 11.5868 21.5868 23.7198 21.5868 11.614 0 23.61-7.0034 23.61-21.5868v-16.5609c0-14.3089-11.477-20.9277-23.61-20.9277-4.072 0-11.204 2.5267-13.445 7.8273l.137-18.2912c0-7.0308 6.34-10.6011 13.062-10.6011 3.962 0 8.171 1.3457 12.789 5.7125l1.968-1.9774h.136c.094-.0877.179-.1697.257-.2456.267-.257.461-.4449.672-.5509.123-.1237.335-.3365.576-.4779-.012.0142.011.0022.08-.0439-.027.0136-.054.0283-.08.0439.042-.0511.534-.4393 1.01-.8148v-.0001-.0001c.184-.1453.366-.2887.518-.4099l.028-.022c.673-.5414 1.329-1.0685 2.623-2.5047-7.515-7.82725-13.718-9.28285-20.577-9.28285zm.246 42.15755c6.722 0 13.062 3.433 13.062 10.4638v16.5884c-.273 7.1681-6.859 10.8758-13.199 10.8758-6.585 0-13.171-3.7077-13.171-10.8758v-16.1764c0-7.4428 6.449-10.8758 13.308-10.8758zm36.507-20.6815c0-14.3912 11.805-21.44953 24.13-21.44953 11.805 0 23.883 7.05833 23.883 21.44953v47.5954c0 14.8032-12.078 21.8615-23.883 21.8615-12.325 0-24.13-7.0583-24.13-21.8615zm10.63 47.5679c0 7.3329 6.641 11.0681 13.527 11.0681 6.504 0 13.254-3.7352 13.254-11.0681v-47.5679c0-6.921-6.75-10.6561-13.254-10.6561-6.886 0-13.527 3.7351-13.527 10.6561z" fill="#fbfbfd" fill-rule="evenodd"/><path d="m254.055 2.75488v94.00002" stroke="#fff" stroke-linecap="round" stroke-width="3.81081"/><g clip-path="url(#a)" fill="#fff"><path d="m675.922 79.952c3.939 0 7.133-3.1934 7.133-7.1327s-3.194-7.1328-7.133-7.1328c-3.94 0-7.133 3.1935-7.133 7.1328s3.193 7.1327 7.133 7.1327z"/><path d="m665.558 48.9206c-2.468-5.8473-11.174-9.4326-22.581-9.4326h-.065c-6.031.0573-12.036.8016-17.899 2.2184-1.379.3353-2.606 1.1238-3.483 2.2392-.877 1.1153-1.355 2.4928-1.356 3.9118v5.1313c6.819-2.8415 14.13-4.3158 21.518-4.3394 8.478 0 12.947 2.0341 12.947 5.2886v.3634c-12.519 0-24.218.2604-31.151 2.8585-4.643 1.7195-8.374 4.936-8.374 10.7561-.005.948.104 1.8932.325 2.8151-1.188.1656-2.386.2489-3.585.2496-5.121 0-9.346-1.5459-9.346-6.905v-14.4336h16.218v-9.6225h-16.218v-8.8305h-7.209c-1.223-.0008-2.401.4604-3.298 1.2912s-1.447 1.9699-1.54 3.1892l-.337 4.3393h-23.285v-8.8197h-7.166c-1.235-.0033-2.425.4616-3.331 1.301-.906.8395-1.46 1.9911-1.551 3.2228l-.336 4.3067h-7.735v6.2866c-3.666-4.2851-11.347-6.8181-20.937-6.8181h-.07c-5.919.066-11.812.7937-17.569 2.1696-1.467.3563-2.771 1.1948-3.703 2.3811-.933 1.1863-1.44 2.6515-1.439 4.1604v4.7896c6.812-2.8387 14.115-4.313 21.496-4.3394 8.483 0 12.947 2.0341 12.947 5.2886v.3634c-12.519 0-24.219.2604-31.156 2.8585-3.933 1.4483-7.225 3.9868-8.137 8.2773v-24.0453h-8.396c-.772.0047-1.516.2831-2.101.7858-.586.5027-.973 1.1969-1.094 1.9589l-.239 1.6272c-5.098-4.6648-12.557-6.1781-18.339-6.1781-6.091 0-14.103 1.6761-19.31 6.7585v-6.829c-2.337-.4716-4.715-.7132-7.1-.7214-6.444 0-14 1.9038-18.274 8.0169l-.656-6.0425h-5.641c-1.467 0-2.873.5821-3.911 1.6185-1.037 1.0364-1.621 2.4423-1.622 3.9087v7.4636c-3.965-10.8483-17.33-13.3271-27.072-13.3271-10.458 0-25.076 2.8422-27.788 15.833-3.097-13.5603-17.949-13.1806-17.949-13.1806h-25.32v-23.1828l-12.285.0434v58.8953l40.637-.0867c2.399.0707 4.784-.3925 6.981-1.3561 1.88-.7808 3.552-1.99 4.882-3.5311 1.298-1.6081 2.244-3.4707 2.777-5.4675.203-.7376.365-1.4854.488-2.2402 3.184 12.2314 17.358 14.9489 27.582 14.9489 9.764 0 23.107-2.4734 27.072-13.3325v13.0179h11.83v-14.7536c0-10.8483 4.21-17.4821 17.488-17.4821 1.869.0344 3.733.2249 5.571.5696-1.877 2.8043-3.027 6.3571-3.027 10.8049 0 15.9687 14.824 20.3405 24.653 20.3405 5.782 0 13.24-1.5079 18.339-6.1781v.4285c0 8.4454-7.052 11.6023-17.553 11.6023-5.925-.0448-11.793-1.164-17.319-3.3033v10.1214c5.749 1.9039 11.038 3.2165 17.124 3.2165 20.867 0 29.578-9.6278 29.578-20.4381v-5.3157c1.546 7.2846 10.04 9.7635 18.746 9.7635 9.503 0 17.65-2.9562 20.541-6.6717l.645 7.0947h11.174v-24.349c0-3.2544-.173-5.1149-.656-6.6066h5.825v14.374c0 13.159 9.764 16.7661 20.314 16.7661 3.393-.0825 6.758-.63 10.002-1.6273v-9.6441c-2.757.9917-5.667 1.4911-8.597 1.4754-5.121 0-9.346-1.5459-9.346-6.905v-14.4336h23.324v14.3685c0 13.159 9.763 16.7661 20.308 16.7661 3.393-.0813 6.758-.6289 10.002-1.6273v-1.9418c3.596 2.1696 8.592 2.9887 13.664 2.9887 9.492 0 17.644-2.9562 20.535-6.6717l.662 7.0893h11.174v-24.3707c-.006-3.7969-.239-5.6845-.917-7.3225zm-321.11 15.5293c-.256.7375-.726 1.3817-1.351 1.8496-.599.3986-1.293.6324-2.012.678-.812.0692-1.626.0963-2.441.0814l-25.325.0868v-12.4756l25.347-.0542c.814-.0159 1.629.0131 2.441.0868.717.0463 1.411.278 2.012.6726.615.4703 1.077 1.1119 1.329 1.8442.402 1.1605.585 2.3852.542 3.6125.043 1.229-.141 2.4554-.542 3.6179zm39.933 7.3009c-7.86 0-16.403-2.7609-16.403-10.9785s8.543-10.973 16.403-10.973c7.859 0 16.397 2.7554 16.397 10.973s-8.521 10.9785-16.376 10.9785zm86.369-.8625c-7.464 0-15.579-2.7663-15.579-10.9784 0-8.2122 8.137-10.9785 15.579-10.9785 7.441 0 15.578 3.5148 15.578 11.0002 0 7.4853-8.12 10.9567-15.578 10.9567zm46.815.293c-2.402 0-7.132-.5425-7.132-3.7102.031-.6253.223-1.232.556-1.7619.334-.53.798-.9655 1.348-1.2647 4.274-2.5982 17.812-2.5982 22.58-2.5982h2.528c0 4.8492-7.919 9.3566-19.88 9.3566zm117.189 0c-2.402 0-7.132-.5425-7.132-3.7102.03-.6262.222-1.2339.557-1.7642.334-.5302.8-.9651 1.352-1.2624 4.269-2.5982 17.807-2.5982 22.575-2.5982h2.528c0 4.8492-7.919 9.3566-19.88 9.3566z"/></g></svg>