<svg fill="none" height="124" viewBox="0 0 190 124" width="190" xmlns="http://www.w3.org/2000/svg" xmlns:xlink="http://www.w3.org/1999/xlink"><clipPath id="a"><path d="m0 86.04h189.09v37.7397h-189.09z"/></clipPath><path clip-rule="evenodd" d="m43.457 11.542v2.3926c0 2.9637 2.4213 7.1101 6.5199 8.5239 0 0 .0305.0119.0872.034-.0567.0222-.0872.034-.0872.034-4.0986 1.4139-6.5199 5.5739-6.5199 8.5239v2.3927c0 7.749 6.3711 11.542 12.607 11.542 3.7555 0 7.4105-1.5288 9.8137-4.5132 2.403 2.9932 6.0633 4.5265 9.8244 4.5265 6.2359 0 12.607-3.8065 12.607-11.5419v-2.3927c0-2.9501-2.4213-7.1101-6.5064-8.5239-.0013-.0013-.0449-.019-.1241-.0505.0735-.0288.1133-.0444.1133-.0444 4.0986-1.4139 6.5063-5.5603 6.5063-8.524v-2.379c.0136-7.73547-6.3575-11.542-12.5934-11.542-3.7721 0-7.4182 1.53158-9.8204 4.52146-2.4022-2.98988-6.0483-4.52146-9.8204-4.52146-6.2359 0-12.607 3.80653-12.607 11.542zm25.2274 1.8352s.0064-.1799 0-.4932v-.2273c.3247-4.64939 3.6928-6.87893 7.0881-6.87893 3.4358 0 6.9392 1.97124 6.9392 5.76423v2.3926c0 3.0996-3.1382 5.5059-7.2909 6.0497 0 0-.0001.0049-.0002.0144-.0008-.0003-.0017-.0007-.0025-.001-.0289 0-.027 1.423-.0189 2.7512-.0052 1.1178-.0038 2.1648.0187 2.2347.0001.0111.0002.0169.0002.0169 4.1391.5574 7.2909 2.9501 7.2909 6.0497v2.3927c0 3.8065-3.5034 5.7778-6.9392 5.7778-3.3485 0-6.6969-2.1686-7.1-6.6882.0269-.5741.0146-.9247.0146-.9247zm-5.5866-.8999c-.3858-4.52735-3.7502-6.69953-7.1015-6.69953-3.4358 0-6.9392 1.95765-6.9392 5.76423v2.4062c0 3.0996 3.1382 5.5059 7.2909 6.0497.0271-.0068.0271 1.249.0203 2.504.0068 1.2567.0068 2.5125-.0203 2.4989-4.1527.5438-7.2909 2.95-7.2909 6.0496v2.3927c0 3.8065 3.5034 5.7778 6.9392 5.7778 3.3953 0 6.7634-2.2024 7.0881-6.8518v-.1415c-.0106-.3827-.0027-.6064-.0027-.6064l.0027.0003v-18.2443-.4894c.0022-.1185.0064-.2561.0134-.4105zm40.8912-12.4495672c-6.0736 0-11.6196 3.2763372-11.6196 10.4951672v23.7229c0 7.2052 5.7353 10.6854 11.7416 10.6854 5.748 0 11.687-3.4666 11.687-10.6854v-8.1977c0-7.0829-5.682-10.3592-11.687-10.3592-2.016 0-5.5464 1.2507-6.6556 3.8745l.0677-9.0541c0-3.48026 3.1379-5.24758 6.4659-5.24758 1.961 0 4.044.66614 6.33 2.82771l.974-.97883h.068c.046-.04339.088-.08395.127-.12153.132-.12725.228-.22024.333-.27271v-.00006c.061-.06124.166-.16657.285-.23654-.006.00707.005.0011.04-.0217-.014.00673-.027.01401-.04.0217.021-.02529.264-.21759.5-.40349v-.0001l.002-.00122c.09-.07144.18-.14188.254-.20147l.014-.01089c.333-.26799.658-.52893 1.299-1.23983-3.72-3.874505-6.791-4.5950272-10.186-4.5950272zm.122 20.8679672c3.327 0 6.465 1.6993 6.465 5.1796v8.2112c-.135 3.5483-3.395 5.3836-6.533 5.3836-3.26 0-6.5199-1.8353-6.5199-5.3836v-8.0073c0-3.6842 3.1919-5.3835 6.5879-5.3835zm18.071-10.2372c0-7.12363 5.843-10.6174844 11.944-10.6174844 5.843 0 11.822 3.4938544 11.822 10.6174844v23.5597c0 7.3276-5.979 10.8215-11.822 10.8215-6.101 0-11.944-3.4939-11.944-10.8215zm5.262 23.5461c0 3.6298 3.287 5.4787 6.695 5.4787 3.22 0 6.561-1.8489 6.561-5.4787v-23.5461c0-3.42586-3.341-5.27474-6.561-5.27474-3.408 0-6.695 1.84888-6.695 5.27474z" fill="#fbfbfd" fill-rule="evenodd"/><path d="m71.4375 70.04h46.5295" stroke="#fff" stroke-linecap="round" stroke-width="1.88635"/><g clip-path="url(#a)" fill="#fff"><path d="m185.558 115.764c1.95 0 3.531-1.581 3.531-3.531s-1.581-3.531-3.531-3.531-3.531 1.581-3.531 3.531 1.581 3.531 3.531 3.531z"/><path d="m180.429 100.404c-1.222-2.8948-5.531-4.6696-11.178-4.6696h-.032c-2.986.0284-5.958.3969-8.86 1.0982-.683.166-1.29.5563-1.724 1.1083-.434.5521-.671 1.234-.671 1.9364v2.5397c3.375-1.406 6.994-2.136 10.651-2.148 4.196 0 6.409 1.007 6.409 2.618v.18c-6.197 0-11.988.129-15.42 1.415-2.298.851-4.145 2.443-4.145 5.324-.003.47.052.937.161 1.394-.588.082-1.181.123-1.775.123-2.535 0-4.626-.765-4.626-3.418v-7.144h8.028v-4.7634h-8.028v-4.3712h-3.568c-.606-.0004-1.189.2279-1.633.6392-.444.4112-.716.9751-.762 1.5786l-.167 2.148h-11.526v-4.3658h-3.547c-.612-.0016-1.201.2285-1.649.6441-.449.4155-.723.9855-.768 1.5952l-.166 2.1319h-3.829v3.1118c-1.815-2.1211-5.617-3.375-10.364-3.375h-.035c-2.93.0327-5.847.3929-8.696 1.074-.726.1764-1.372.5914-1.833 1.1787-.462.5872-.7126 1.3124-.7126 2.0589v2.371c3.3726-1.405 6.9876-2.135 10.6406-2.148 4.199 0 6.409 1.007 6.409 2.618v.18c-6.197 0-11.988.129-15.423 1.415-1.9461.717-3.5759 1.973-4.0269 4.097v-11.9022h-4.1563c-.3819.0023-.7505.1402-1.0402.389-.2896.2489-.4815.5925-.5413.9696l-.1181.8055c-2.5239-2.309-6.2157-3.0581-9.0778-3.0581-3.0152 0-6.9809.8296-9.5585 3.3454v-3.3803c-1.157-.2335-2.3342-.3531-3.5146-.3571-3.1897 0-6.9298.9424-9.0456 3.9683l-.3248-2.991h-2.7924c-.7259 0-1.422.2881-1.9356.8012-.5135.513-.8023 1.2089-.803 1.9347v3.695c-1.9627-5.3704-8.5785-6.5974-13.4006-6.5974-5.1766 0-12.4126 1.4069-13.755 7.8374-1.5331-6.7124-8.8845-6.5245-8.8845-6.5245h-12.53339v-11.4754l-6.08141.0214v29.1535l20.1157-.043c1.1873.035 2.3676-.194 3.4555-.671.9306-.387 1.758-.986 2.4164-1.748.6426-.796 1.111-1.718 1.3747-2.707.1001-.365.1808-.735.2417-1.109 1.576 6.055 8.5918 7.4 13.653 7.4 4.8329 0 11.4378-1.224 13.4005-6.6v6.444h5.8559v-7.303c0-5.37 2.0835-8.653 8.6563-8.653.9254.017 1.8478.111 2.7575.282-.929 1.388-1.4983 3.146-1.4983 5.348 0 7.905 7.338 10.069 12.2031 10.069 2.8622 0 6.554-.747 9.0779-3.059v.213c0 4.18-3.4905 5.743-8.6885 5.743-2.9331-.023-5.8378-.577-8.5731-1.635v5.01c2.8461.942 5.4639 1.592 8.4764 1.592 10.329 0 14.641-4.766 14.641-10.117v-2.631c.7653 3.606 4.9703 4.833 9.2793 4.833 4.704 0 8.737-1.464 10.168-3.303l.319 3.512h5.531v-12.053c0-1.611-.086-2.532-.325-3.27h2.884v7.115c0 6.514 4.833 8.299 10.055 8.299 1.68-.041 3.346-.312 4.951-.805v-4.774c-1.365.491-2.805.738-4.255.73-2.535 0-4.627-.765-4.627-3.418v-7.144h11.546v7.112c0 6.514 4.833 8.299 10.052 8.299 1.68-.04 3.346-.311 4.951-.805v-.961c1.78 1.074 4.253 1.479 6.764 1.479 4.698 0 8.734-1.463 10.165-3.302l.327 3.509h5.531v-12.064c-.002-1.879-.118-2.814-.453-3.624zm-158.9494 7.687c-.1265.365-.3593.684-.6685.915-.2969.197-.6404.313-.9962.336-.4017.034-.805.047-1.2082.04l-12.53603.043v-6.175l12.54673-.027c.4033-.008.8066.006 1.2083.043.3552.023.6985.137.9961.333.3045.232.5333.55.6578.913.1988.574.2898 1.18.2685 1.788.0211.608-.07 1.215-.2685 1.791zm19.7666 3.614c-3.8905 0-8.1193-1.367-8.1193-5.435s4.2288-5.431 8.1193-5.431 8.1166 1.363 8.1166 5.431-4.218 5.435-8.1058 5.435zm42.7525-.427c-3.6945 0-7.7112-1.37-7.7112-5.435s4.0274-5.434 7.7112-5.434c3.6837 0 7.7112 1.74 7.7112 5.445s-4.0194 5.424-7.7112 5.424zm23.1743.145c-1.19 0-3.531-.269-3.531-1.837.015-.309.11-.61.275-.872s.395-.478.667-.626c2.116-1.286 8.818-1.286 11.178-1.286h1.251c0 2.4-3.92 4.631-9.84 4.631zm58.008 0c-1.19 0-3.531-.269-3.531-1.837.015-.31.11-.611.276-.873.165-.263.396-.478.669-.625 2.113-1.286 8.815-1.286 11.175-1.286h1.251c0 2.4-3.92 4.631-9.84 4.631z"/></g></svg>