<svg fill="none" height="61" viewBox="0 0 301 61" width="301" xmlns="http://www.w3.org/2000/svg" xmlns:xlink="http://www.w3.org/1999/xlink"><clipPath id="a"><path d="m.101562.70166h300.285v59.9306h-300.285z"/></clipPath><g clip-path="url(#a)" fill="#fff"><path d="m294.779 47.904c3.096 0 5.607-2.5103 5.607-5.6068s-2.511-5.6068-5.607-5.6068c-3.097 0-5.607 2.5103-5.607 5.6068s2.51 5.6068 5.607 5.6068z"/><path d="m286.631 23.512c-1.94-4.5963-8.783-7.4146-17.75-7.4146h-.051c-4.742.0451-9.462.6302-14.071 1.7439-1.084.2635-2.048.8833-2.738 1.76-.689.8767-1.065 1.9596-1.065 3.075v4.0335c5.36-2.2336 11.107-3.3925 16.914-3.411 6.665 0 10.178 1.5989 10.178 4.1571v.2857c-9.841 0-19.038.2046-24.487 2.247-3.65 1.3516-6.584 3.8799-6.584 8.4549-.003.7452.083 1.4881.256 2.2128-.934.1302-1.875.1957-2.818.1962-4.025 0-7.347-1.2152-7.347-5.4277v-11.3457h12.749v-7.5638h-12.749v-6.94136h-5.666c-.962-.00063-1.888.36189-2.593 1.01496-.705.6531-1.138 1.5485-1.211 2.5069l-.264 3.4109h-18.305v-6.93276h-5.632c-.971-.00261-1.907.36282-2.619 1.02266-.712.6599-1.147 1.5651-1.219 2.5333l-.264 3.3854h-6.08v4.9416c-2.883-3.3683-8.92-5.3595-16.459-5.3595h-.055c-4.653.0519-9.285.624-13.811 1.7055-1.152.28-2.177.9392-2.91 1.8717s-1.132 2.0842-1.132 3.2703v3.7649c5.355-2.2314 11.096-3.3903 16.898-3.411 6.669 0 10.178 1.5989 10.178 4.1571v.2857c-9.841 0-19.038.2046-24.492 2.247-3.091 1.1384-5.679 3.1338-6.396 6.5064v-18.901h-6.6c-.606.0036-1.192.2225-1.652.6177-.46.3951-.764.9408-.859 1.5397l-.188 1.2791c-4.008-3.6668-9.871-4.8563-14.416-4.8563-4.788 0-11.086 1.3174-15.179 5.3125v-5.368c-1.838-.3706-3.707-.5606-5.582-.567-5.065 0-11.0045 1.4965-14.3645 6.3017l-.5159-4.7498h-4.4344c-1.1527 0-2.2582.4577-3.0737 1.2723-.8155.8147-1.2742 1.9198-1.2754 3.0725v5.8668c-3.1168-8.5274-13.6229-10.4759-21.2808-10.4759-8.2206 0-19.7117 2.2342-21.8436 12.4457-2.4346-10.6592-14.109-10.3608-14.109-10.3608h-19.90356v-18.223028l-9.657578.03411v46.295318l31.944638-.0682c1.8856.0556 3.7599-.3085 5.4875-1.066 1.4779-.6138 2.7919-1.5642 3.8375-2.7756 1.0205-1.2641 1.7642-2.7282 2.1831-4.2978.159-.5798.2871-1.1676.3837-1.761 2.5029 9.6147 13.6443 11.7508 21.6816 11.7508 7.6749 0 18.1639-1.9442 21.2808-10.4802v10.2329h9.2994v-11.5973c0-8.5274 3.3087-13.7419 13.7462-13.7419 1.47.027 2.935.1768 4.379.4477-1.475 2.2043-2.379 4.9971-2.379 8.4933 0 12.5524 11.653 15.9889 19.379 15.9889 4.546 0 10.408-1.1853 14.416-4.8564v.3369c0 6.6386-5.543 9.12-13.797 9.12-4.658-.0352-9.271-.9149-13.615-2.5966v7.9561c4.52 1.4966 8.677 2.5284 13.461 2.5284 16.403 0 23.251-7.5681 23.251-16.0656v-4.1785c1.215 5.7262 7.892 7.6747 14.736 7.6747 7.47 0 13.874-2.3237 16.147-5.2444l.507 5.577h8.784v-19.1398c0-2.5582-.137-4.0207-.516-5.1932h4.579v11.2988c0 10.3438 7.675 13.1791 15.968 13.1791 2.667-.0648 5.313-.4952 7.863-1.2791v-7.5809c-2.168.7796-4.455 1.1721-6.759 1.1598-4.025 0-7.346-1.2152-7.346-5.4277v-11.3457h18.334v11.2945c0 10.3438 7.675 13.1791 15.964 13.1791 2.667-.0639 5.313-.4943 7.863-1.2791v-1.5264c2.826 1.7055 6.753 2.3493 10.74 2.3493 7.462 0 13.87-2.3237 16.143-5.2444l.52 5.5727h8.784v-19.1568c-.005-2.9846-.188-4.4684-.721-5.756zm-252.4188 12.207c-.2009.5797-.5706 1.0861-1.0617 1.4539-.4714.3133-1.0169.4971-1.5819.533-.638.0543-1.2784.0756-1.9187.0639l-19.90781.0682v-9.8065l19.92491-.0426c.6403-.0125 1.2809.0103 1.9187.0682.5642.0364 1.1092.2185 1.5819.5287.4835.3697.8469.874 1.0446 1.4497.3157.9122.4603 1.8749.4264 2.8396.0334.9661-.1111 1.9301-.4264 2.8439zm31.3904 5.7389c-6.1783 0-12.8939-2.1702-12.8939-8.6297s6.7156-8.6255 12.8939-8.6255c6.1782 0 12.8895 2.166 12.8895 8.6255s-6.6985 8.6297-12.8725 8.6297zm67.8934-.6779c-5.867 0-12.246-2.1745-12.246-8.6297 0-6.4553 6.396-8.6298 12.246-8.6298s12.245 2.7629 12.245 8.6468-6.383 8.6127-12.245 8.6127zm36.801.2302c-1.889 0-5.607-.4263-5.607-2.9163.025-.4916.175-.9685.437-1.3851s.627-.7589 1.059-.9941c3.36-2.0423 14.003-2.0423 17.751-2.0423h1.987c0 3.8117-6.226 7.3549-15.627 7.3549zm92.12 0c-1.889 0-5.607-.4263-5.607-2.9163.024-.4923.175-.97.438-1.3868s.629-.7587 1.063-.9924c3.355-2.0423 13.998-2.0423 17.746-2.0423h1.987c0 3.8117-6.225 7.3549-15.627 7.3549z"/></g></svg>