<svg fill="none" height="35" viewBox="0 0 196 35" width="196" xmlns="http://www.w3.org/2000/svg"><g fill="#eb9542"><path clip-rule="evenodd" d="m156.935 8.98981c5.236 0 9.231 1.64559 10.364 4.32919.311.7519.418 1.6182.421 3.3609v11.1853h-5.129l-.303-3.2538c-1.327 1.7053-5.069 3.0621-9.426 3.0621-2.328 0-4.621-.376-6.271-1.3717v.8912c-1.489.4582-3.034.7095-4.591.7468-4.84 0-9.321-1.6555-9.321-7.695v-6.5947h-10.705v6.6246c0 2.4596 1.939 3.1691 4.289 3.1691 1.345.0072 2.681-.222 3.946-.6771v4.4263c-1.488.4577-3.033.709-4.59.7468-4.843 0-9.324-1.6555-9.324-7.695v-6.5971h-2.674c.222.6846.302 1.5385.302 3.0322v11.1753h-5.129l-.296-3.2563c-1.327 1.7053-5.066 3.0621-9.4281 3.0621-3.9958 0-7.8944-1.1377-8.604-4.4811v2.4397c0 4.9616-3.9982 9.3804-13.5756 9.3804-2.7933 0-5.2206-.6024-7.8595-1.4762v-4.6454c2.5362.9819 5.2295 1.4955 7.9491 1.5161 4.8199 0 8.0563-1.4489 8.0563-5.325v-.1967c-2.3402 2.1434-5.7634 2.8355-8.4172 2.8355-4.5111 0-11.3151-2.0065-11.3151-9.3356 0-2.0414.5278-3.672 1.3892-4.9591-.8435-.1581-1.6988-.2456-2.5568-.2614-6.0945 0-8.0264 3.0447-8.0264 8.0237v6.7714h-5.4297v-5.9748c-1.8199 4.984-7.9443 6.1192-12.4255 6.1192-4.6928 0-11.1981-1.2472-12.6594-6.8611-.0565.3465-.1313.6897-.2241 1.0282-.2446.9165-.6788 1.7714-1.2747 2.5094-.6104.7073-1.3777 1.2623-2.2406 1.6207-1.0087.4422-2.1031.6548-3.2041.6224l-18.6518.0398v-27.0309399l5.63887-.01991596v10.64005586h11.62133s6.8164-.1742 8.238 6.0495c1.2447-5.9623 7.9541-7.26682 12.754-7.26682 4.4713 0 10.6056 1.13772 12.4255 6.11672v-3.4256c.0006-.673.2685-1.3182.7446-1.7939.4762-.47568 1.1217-.74287 1.7947-.74287h2.5892l.3012 2.77327c1.9618-2.80563 5.4298-3.67945 8.3874-3.67945 1.0944.00378 2.1859.11468 3.2588.33111v3.13424c2.39-2.33263 6.0671-3.10188 8.8629-3.10188 2.6539 0 6.077.69457 8.4172 2.83558l.1095-.7469c.0555-.3497.2334-.6683.502-.899.2685-.23074.6103-.35856.9644-.36068h3.8539v11.03588c.4182-1.9691 1.9294-3.1342 3.7343-3.7989 3.1842-1.1925 8.5542-1.312 14.3002-1.312v-.1668c0-1.4937-2.049-2.4272-5.943-2.4272-3.387.0121-6.7391.6887-9.8659 1.9916v-2.1983c0-.6925.2326-1.365.6606-1.9094.428-.5445 1.0266-.9294 1.6995-1.09289 2.6424-.63149 5.3468-.9655 8.0638-.9958h.032c4.402 0 7.927 1.16259 9.61 3.12929v-2.88532h3.55l.155-1.97666c.041-.5653.295-1.09384.711-1.47912.416-.38527.962-.59864 1.529-.59712h3.289v4.04792h10.688l.154-1.9916c.043-.55959.295-1.08239.707-1.46371.412-.38131.952-.59298 1.514-.59261h3.308v4.0529h7.444v4.41632h-7.444v6.6246c0 2.4596 1.94 3.1691 4.29 3.1691.55-.0003 1.1-.0385 1.645-.1145-.101-.4232-.151-.8569-.149-1.2921 0-2.6712 1.713-4.1474 3.844-4.9366 3.182-1.1925 8.552-1.312 14.298-1.312v-.1668c0-1.4937-2.052-2.4272-5.943-2.4272-3.391.0108-6.746.6874-9.876 1.9916v-2.3551c0-.6513.219-1.2835.622-1.7954s.966-.8738 1.598-1.0277c2.691-.65025 5.448-.99186 8.216-1.01819zm-137.6384 12.30559c.2868-.2148.5027-.5105.6199-.8489.1841-.5336.2685-1.0965.249-1.6605.0198-.5633-.0646-1.1254-.249-1.658-.1154-.3361-.3276-.6306-.6099-.8465-.276-.1811-.5942-.2874-.9236-.3087-.3724-.0338-.7464-.0471-1.1203-.0398l-11.63379.0249v5.7258l11.62379-.0398c.3738.0069.7478-.0056 1.1203-.0373.3299-.021.6484-.1283.9236-.3112zm11.4197-2.5368c0 3.7716 3.9211 5.0387 7.5285 5.0387h.0099c3.6049 0 7.516-1.2671 7.516-5.0387s-3.9186-5.0363-7.5259-5.0363c-3.6074 0-7.5285 1.2647-7.5285 5.0363zm40.0198-.3958c0 3.769 3.7244 5.0387 7.1501 5.0387 3.4231 0 7.15-1.5933 7.15-5.0288s-3.7344-5.0487-7.15-5.0487c-3.4157 0-7.1501 1.2697-7.1501 5.0388zm25.3637 3.4703c0 1.4539 2.171 1.7028 3.2738 1.7028v.01c5.4894 0 9.1244-2.0688 9.1244-4.2944h-1.16c-2.189 0-8.4025 0-10.3643 1.1925-.2524.1373-.4654.3372-.6184.5804-.153.2433-.2409.5217-.2555.8087zm53.7872 0c0 1.4539 2.171 1.7028 3.274 1.7028v.01c5.489 0 9.124-2.0688 9.124-4.2944h-1.16c-2.188 0-8.402 0-10.362 1.1925-.253.1364-.467.336-.62.5794-.154.2434-.242.5223-.256.8097z" fill-rule="evenodd"/><path d="m175.33 24.2874c0 1.808-1.466 3.2736-3.274 3.2736s-3.273-1.4656-3.273-3.2736c0-1.8081 1.465-3.2737 3.273-3.2737s3.274 1.4656 3.274 3.2737z"/></g></svg>