<svg fill="none" height="558" viewBox="0 0 558 558" width="558" xmlns="http://www.w3.org/2000/svg"><path clip-rule="evenodd" d="m337.316 79.283c.132 6.5228 0 10.2703 0 10.2703v379.6137s.253 7.19-.291 18.986c2.408 27.391 10.006 50.642 21.286 69.847h199.689v-201.513c-23.077-12.254-50.516-20.887-80.433-24.915l-.003-.27c-.525-.454-.537-24.827-.408-49.881-.152-26.673-.166-54.024.411-54.024l.019.008.003-.273c29.95-3.922 57.366-12.497 80.411-24.712v-202.42h-198.644c-12.043 20.2504-19.981 45.063-22.04 74.55zm-337.316 123.409v-202.692h199.228c11.595 19.3894 19.383 42.9615 21.756 70.8144-.146 3.2134-.232 6.0804-.279 8.548v10.1909 379.8827l-.022-.003s-.144 4.122.022 11.244v4.343c-2.01 28.787-9.624 53.069-21.189 72.98h-199.516v-201.688c23.0489-12.222 50.4728-20.8 80.4324-24.723.5645.283.5634-25.866.4217-52.033.1417-26.133.1428-52.283-.4217-52.141-29.9596-3.924-57.3835-12.502-80.4324-24.723z" fill="#db7339" fill-rule="evenodd"/></svg>