<svg fill="none" height="20" viewBox="0 0 14 20" width="14" xmlns="http://www.w3.org/2000/svg"><path d="m7 20c-.23333 0-.43333-.0667-.6-.2s-.29167-.3083-.375-.525c-.31667-.9333-.71667-1.8083-1.2-2.625-.46667-.8167-1.125-1.775-1.975-2.875s-1.54167-2.15-2.075-3.15c-.516667-1-.775-2.20833-.775-3.625 0-1.95.675-3.6 2.025-4.95 1.36667-1.366667 3.025-2.05 4.975-2.05s3.6.683333 4.95 2.05c1.3667 1.35 2.05 3 2.05 4.95 0 1.51667-.2917 2.78333-.875 3.8-.5667 1-1.225 1.9917-1.975 2.975-.9 1.2-1.58333 2.2-2.05 3-.45.7833-.825 1.6167-1.125 2.5-.08333.2333-.21667.4167-.4.55-.16667.1167-.35833.175-.575.175zm0-10.5c.7 0 1.29167-.24167 1.775-.725s.725-1.075.725-1.775-.24167-1.29167-.725-1.775-1.075-.725-1.775-.725-1.29167.24167-1.775.725-.725 1.075-.725 1.775.24167 1.29167.725 1.775 1.075.725 1.775.725z" fill="#1a4ce0"/></svg>