<svg fill="none" height="35" viewBox="0 0 233 35" width="233" xmlns="http://www.w3.org/2000/svg"><g fill="#4ea68e"><path d="m18.5562 17.2726c.4812-.363.8915-.7892 1.2307-1.2706.6391-.955.9626-2.1704.9626-3.6304 0-.9866-.1657-1.9257-.4971-2.78599-.3392-.89182-.8678-1.65737-1.5621-2.27296-.7179-.62348-1.6016-1.1049-2.6193-1.43638-1.0336-.31568-2.2485-.48142-3.6292-.48142h-12.4418v23.87385h12.5365c1.4122 0 2.643-.1736 3.637-.5129 1.0336-.3315 1.9172-.8129 2.6036-1.4285.7179-.6551 1.2465-1.4127 1.5779-2.273.3235-.8839.4813-1.8152.4813-2.7859 0-1.4759-.3472-2.7228-1.0178-3.6857-.3471-.4893-.7653-.9313-1.2623-1.3101zm-12.89152-6.2112h6.90332c.8915 0 1.5543.1816 1.9172.5209.3392.3394.5049.7893.5049 1.4048 0 .592 0 1.689-2.4457 1.689h-6.87182v-3.6147zm8.89942 12.0199c-.3472.3235-1.0178.4893-1.9408.4893h-6.9665v-3.8041h6.9665c2.1459 0 2.4457.9076 2.4457 1.8942.0079.6392-.1578 1.1049-.5049 1.4206z"/><path d="m33.1471 23.5385c-.7574 0-1.3885-.0789-1.8619-.2446-.4418-.15-.789-.3473-1.0335-.584-.2288-.221-.3945-.4894-.4813-.7971-.1105-.3789-.1736-.7814-.1736-1.2076v-15.30292h-5.7357v15.34242c0 1.1996.1657 2.3203.4813 3.3305.3393 1.0576.8836 1.9888 1.641 2.7623.7495.7734 1.7199 1.3811 2.8797 1.8073 1.1282.4183 2.4931.6314 4.0552.6314h9.7041v-5.7377z"/><path d="m58.3823 5.40228h-2.9981c-3.4714 0-6.1854 1.01809-8.0631 3.03849-1.8619 1.99673-2.8086 5.01153-2.8086 8.94973 0 3.9224.9467 6.9136 2.8165 8.8866 1.8777 1.9889 4.5917 2.9991 8.0631 2.9991h2.9981c3.4713 0 6.1774-1.0102 8.063-2.9991 1.8699-1.973 2.8166-4.9642 2.8166-8.8866 0-3.9461-.9467-6.953-2.8087-8.94973-1.8934-2.0204-4.6075-3.03849-8.0788-3.03849zm3.8895 16.78672c-.7732.8997-2.0828 1.3495-3.8895 1.3495h-2.9981c-1.854 0-3.1794-.4498-3.9368-1.3337-.7969-.9234-1.1992-2.5492-1.1992-4.8222 0-2.2966.4102-3.9382 1.2228-4.8852.7732-.9076 2.0908-1.3654 3.9211-1.3654h2.9981c1.8224 0 3.14.4578 3.9053 1.3575.8047.947 1.2071 2.5807 1.2071 4.8616-.0079 2.2808-.4182 3.9066-1.2308 4.8379z"/><path d="m82.0526 5.40228c-3.4714 0-6.1775 1.01809-8.0631 3.01482-1.8699 1.9888-2.8087 4.9958-2.8087 8.934 0 3.9224.9467 6.9214 2.8087 8.9024 1.8856 2.0046 4.5917 3.0148 8.0631 3.0148h9.4438v-5.7376h-9.4438c-1.8462 0-3.1716-.4499-3.9369-1.3496-.7968-.9392-1.2071-2.565-1.2071-4.8379 0-2.2967.4103-3.9303 1.215-4.8695.7732-.8918 2.0907-1.3496 3.9211-1.3496h9.4438v-5.72182z"/><path d="m113.183 20.9899c-.339-.6629-.671-1.2391-.994-1.7284-.339-.5209-.702-.9786-1.081-1.3574-.323-.3236-.678-.6077-1.049-.8524.315-.2446.599-.5209.852-.8129.607-.7024 1.191-1.5863 1.72-2.6281l4.15-8.21576h-6.249l-.26.51299-3.353 6.58207c-.276.5604-.537.9944-.773 1.3101-.182.2447-.403.4262-.663.5525-.284.142-.671.2367-1.144.2762-.568.0553-1.31.0789-2.209.0789h-1.168v-9.30487h-5.7355v23.87387h5.7355v-9.1865h1.168c1.01 0 1.838.0237 2.461.0789.545.0474.987.1421 1.318.292.3.1342.536.3157.726.5446.236.292.497.7103.773 1.2391l3.353 6.511.26.513h6.422z"/><path d="m138.778 16.8775c-.64-.7024-1.515-1.2785-2.596-1.7126-1.065-.4183-2.414-.6392-4.024-.6392h-5.183c-.56 0-1.01-.0553-1.334-.1658-.291-.1026-.52-.2289-.67-.3867-.15-.1499-.253-.3157-.308-.4972-.071-.2368-.11-.4735-.11-.7182 0-.5446.15-.9707.457-1.3022.292-.3078.821-.4656 1.57-.4656h12.213v-5.58772h-12.086c-1.318 0-2.478.17362-3.44.52877-.994.36304-1.823.87604-2.47 1.53898-.647.66295-1.128 1.45217-1.42 2.35188-.276.86029-.418 1.80729-.418 2.80959 0 .8366.118 1.689.339 2.5255.245.8919.679 1.6969 1.302 2.4072s1.483 1.2864 2.548 1.7126c1.05.4183 2.344.6156 3.961.6156h5.152c.584 0 1.057.0631 1.412.1815.323.1105.584.2525.749.4183.158.1499.269.3235.34.5287.079.2526.126.5051.126.7735 0 .584-.166 1.0417-.497 1.3969-.324.3394-.892.5051-1.696.5051h-13.334v5.5956h13.2c1.364 0 2.556-.1816 3.526-.5446 1.002-.3709 1.838-.8997 2.493-1.5705.663-.6709 1.144-1.4759 1.452-2.3835.292-.8681.434-1.831.434-2.8649 0-.8602-.118-1.7284-.339-2.5807-.253-.9313-.703-1.76-1.349-2.4703z"/><path d="m142.373 5.40228v5.58772h6.469v18.2862h5.618v-18.2862h6.461v-5.58772z"/><path d="m171.086 23.6885c-.915 0-1.57-.1736-1.956-.5209-.363-.3236-.537-.7892-.537-1.4127 0-.9076.3-1.8389 2.525-1.8389h11.85v-5.2325h-11.755c-2.525 0-2.525-1.1917-2.525-1.7679 0-.6155.174-1.0812.521-1.4205.355-.3394 1.033-.513 1.964-.513h11.953v-5.57982h-11.953c-1.396 0-2.619.16573-3.621.48142-1.042.33147-1.917.805-2.604 1.4206-.702.62348-1.23 1.38113-1.562 2.25716-.323.83654-.481 1.75994-.481 2.73864 0 2.194.773 3.8908 2.248 4.9957-.536.4025-.994.8918-1.357 1.4443-.639.9786-.962 2.2019-.962 3.6383 0 .9471.158 1.8547.465 2.6912.324.8761.845 1.6416 1.547 2.2651.686.6156 1.562 1.097 2.595 1.4364 1.01.3314 2.233.5051 3.63.5051h12.086v-5.5956h-12.071z"/><path d="m223.558 28.1163-6.856-18.45201c-.473-1.38114-1.175-2.50972-2.075-3.3384-.954-.87603-2.296-1.32589-3.976-1.32589-1.886 0-3.329.54456-4.308 1.61001-.954 1.04177-1.436 2.41501-1.436 4.07239v13.101c0 .2131-.063.2842-.094.3157-.048.0553-.095.0789-.198.0789-.165 0-.221-.0473-.244-.0631-.087-.071-.15-.1657-.205-.3078l-5.389-14.14281c-.442-1.36535-1.12-2.49393-2.004-3.32262-.939-.88392-2.28-1.33378-3.984-1.33378-1.909 0-3.369.54456-4.339 1.61001-.955 1.04966-1.436 2.41501-1.436 4.0724v18.5861h5.594v-18.3888c0-.1184.015-.2762.094-.3631.016-.0236.055-.0631.205-.0631.095 0 .142.0237.19.0631.094.079.173.1895.228.3394l5.381 14.1428c.474 1.3733 1.168 2.5019 2.051 3.3226.947.884 2.28 1.3259 3.961 1.3259 1.886 0 3.337-.5366 4.323-1.6021.971-1.0418 1.46-2.4308 1.46-4.1118v-13.0537c0-.1184.016-.2762.095-.3631.023-.0315.055-.0631.165-.0631.15 0 .198.0395.221.0631.095.079.174.1895.229.3394l6.588 17.8443.205.5603h5.996z"/></g></svg>