<svg fill="none" height="35" viewBox="0 0 132 35" width="132" xmlns="http://www.w3.org/2000/svg"><g fill="#8893ce"><path d="m22.5416 31.2692c-.6183-1.1082-.9512-2.8909-.9512-5.2517 0-3.2281-.8084-5.878-2.9009-7.5162h.428c1.6169 0 2.5205-.9154 2.5205-2.5535v-13.39423c0-1.638139-.9036-2.55357-2.5205-2.55357h-14.88501c-1.61691 0-2.52047.915431-2.52047 2.55357v23.46393c0 1.4454 0 4.8181-1.71202 6.1189 1.71202.3373 4.80316.4337 6.42007-.53 1.47423-.819 2.33024-1.7345 2.33024-5.5889v-7.468h.57067c4.61292 1.3491 4.89832 5.0108 5.18362 8.1425.0951 3.3245.9511 4.1917 2.3302 4.9626.5232.2891 1.1414.4818 1.8547.5782.856.1445 1.712.1927 2.568.1445.7609-.0481 1.4743-.0963 2.045-.1927-.3329-.2891-.5707-.5782-.7609-.9154zm-13.26817-19.1277c-.28534 0-.47556-.1927-.47556-.4818v-4.57716c0-.28908.19022-.4818.47556-.4818h4.80317c.2853 0 .4755.19272.4755.4818v4.57716c0 .2891-.1902.4818-.4755.4818z"/><path d="m46.2477 26.0352v-23.47989c0-1.639256-.8993-2.55531-2.5087-2.55531h-14.721c-1.6094 0-2.5087.916054-2.5087 2.55531v23.47989c0 1.4464 0 4.8214-1.7041 6.1231 1.7041.3375 4.7808.434 6.3902-.5303 1.4673-.8196 2.3194-1.7357 2.3194-5.5928v-6.6052c0-.5786.2366-.8678.7573-.8678h4.1181c.7574 0 .7574.3857.7574.916v6.557c0 3.8571.852 4.7732 2.3194 5.5928 1.6567.916 4.7334.8196 6.3901.5303-1.6094-1.3017-1.6094-4.6767-1.6094-6.1231zm-12.2596-13.8854c-.284 0-.4733-.1929-.4733-.4822v-4.58023c0-.28928.1893-.48213.4733-.48213h4.7808c.284 0 .4733.19285.4733.48213v4.58023c0 .2893-.1893.4822-.4733.4822z"/><path d="m68.3033.73227c-1.462.81939-2.3108 1.73518-2.3108 5.59115l-.0472 4.04878v1.2532c0 .2892-.1886.482-.4716.482h-6.3665c-.2829 0-.4716-.1928-.4716-.482v-5.30198c0-1.44599 0-4.81996 1.6978-6.121346-1.6978-.2891975-4.8103-.385597-6.4137.530196-1.462.81939-2.3108 1.73518-2.3108 5.59115l-.0472 19.71368c0 1.4459 0 4.8199-1.6977 6.1213 1.6977.3374 4.7631.4338 6.3665-.5302 1.4619-.8194 2.3108-1.7352 2.3108-5.5911l.0472-5.784v-1.2532c0-.2892.1886-.482.4715-.482h6.4137c.283 0 .4716.1928.4716.482v7.0372c0 1.4459 0 4.8199-1.6977 6.1213 1.6977.3374 4.7631.4338 6.3665-.5302 1.4619-.8194 2.3108-1.7352 2.3108-5.5911l.0472-19.71368c0-1.44599 0-4.81996 1.6977-6.121346-1.6506-.2891975-4.7159-.385597-6.3665.530196z"/><path d="m80.488.73227c-1.4829.81939-2.3439 1.73518-2.3439 5.59115v19.71368c0 1.4459 0 4.8199-1.7221 6.1213 1.7221.3374 4.8314.4338 6.4578-.5302 1.4828-.8194 2.3439-1.7352 2.3439-5.5911 0-7.5674 0-12.0499 0-19.71368 0-1.44599 0-4.81996 1.722-6.121346-1.6742-.2891975-4.7835-.385597-6.4577.530196z"/><path d="m102.422 0h-11.2465c-.9054 0-1.8108.0964149-2.478.241037 1.7156 1.301603 1.7156 4.676123 1.7156 6.122343v19.66862c0 1.4462 0 4.8208-1.7156 6.1224.6672.1446 1.5249.241 2.478.241h11.2465c4.67 0 9.578-2.8924 9.578-8.0024v-16.39056c0-5.10999-4.908-8.00244-9.578-8.00244zm2.478 23.1396c0 1.4944-.763 2.6514-2.717 2.6514h-4.2407c-.2859 0-.4765-.1928-.4765-.4821v-18.22241c0-.28924.1906-.48207.4765-.48207h4.2407c1.907 0 2.717.96415 2.717 2.65141z"/></g></svg>