<svg fill="none" height="35" viewBox="0 0 132 35" width="132" xmlns="http://www.w3.org/2000/svg"><g fill="#8893ce"><path d="m24.3529 33.7819c-.6679-1.1972-1.0275-3.1231-1.0275-5.6737 0-3.4875-.8734-6.3504-3.134-8.1201h.4624c1.7468 0 2.723-.989 2.723-2.7588v-14.47053c0-1.769778-.9762-2.75877-2.723-2.75877h-16.0812c-1.74684 0-2.72301.988992-2.72301 2.75877v25.34943c0 1.5616 0 5.2052-1.84959 6.6106 1.84959.3644 5.18913.4685 6.93596-.5726 1.59271-.8848 2.5175-1.8738 2.5175-6.038v-8.0681h.61654c4.9836 1.4575 5.2919 5.4134 5.6001 8.7968.1028 3.5916 1.0276 4.5286 2.5175 5.3614.5652.3123 1.2331.5205 2.0038.6246.9248.1562 1.8495.2082 2.7743.1562.8221-.0521 1.5927-.1041 2.2093-.2082-.3597-.3123-.6166-.6247-.8221-.989zm-14.3343-20.6647c-.30825 0-.51376-.2083-.51376-.5206v-4.94492c0-.31232.20551-.52053.51376-.52053h5.1891c.3083 0 .5138.20821.5138.52053v4.94492c0 .3123-.2055.5206-.5138.5206z"/><path d="m49.9641 28.1274v-25.36675c0-1.770984-.9716-2.76065-2.7103-2.76065h-15.904c-1.7387 0-2.7103.989666-2.7103 2.76065v25.36675c0 1.5626 0 5.2087-1.841 6.6151 1.841.3646 5.1649.4688 6.9036-.573 1.5853-.8855 2.5058-1.8751 2.5058-6.0421v-7.1361c0-.625.2557-.9375.8182-.9375h4.449c.8183 0 .8183.4167.8183.9896v7.084c0 4.167.9204 5.1566 2.5057 6.0421 1.7899.9897 5.1138.8855 6.9037.573-1.7387-1.4064-1.7387-5.0525-1.7387-6.6151zm-13.2448-15.0013c-.3068 0-.5114-.2084-.5114-.5209v-4.94831c0-.31253.2046-.52088.5114-.52088h5.1649c.3069 0 .5114.20835.5114.52088v4.94831c0 .3125-.2045.5209-.5114.5209z"/><path d="m73.7919.791113c-1.5794.885237-2.4965 1.874617-2.4965 6.040437l-.0509 4.37415v1.3539c0 .3124-.2038.5207-.5095.5207h-6.8781c-.3057 0-.5095-.2083-.5095-.5207v-5.72805c0-1.56218 0-5.20727 1.8342-6.613238-1.8342-.3124365-5.1968-.416582-6.9291.572801-1.5794.885237-2.4965 1.874617-2.4965 6.040437l-.0509 21.29775c0 1.5622 0 5.2073-1.8342 6.6133 1.8342.3645 5.1458.4686 6.8781-.5728 1.5794-.8853 2.4965-1.8747 2.4965-6.0405l.051-6.2487v-1.3539c0-.3124.2037-.5207.5094-.5207h6.9291c.3057 0 .5095.2083.5095.5207v7.6026c0 1.5622 0 5.2073-1.8342 6.6133 1.8342.3645 5.1459.4686 6.8781-.5728 1.5795-.8853 2.4966-1.8747 2.4966-6.0405l.0509-21.29775c0-1.56218 0-5.20727 1.8342-6.613238-1.7833-.3124365-5.0949-.416582-6.8782.572801z"/><path d="m86.9558.791113c-1.602.885237-2.5323 1.874617-2.5323 6.040437v21.29775c0 1.5622 0 5.2073-1.8604 6.6133 1.8604.3645 5.2196.4686 6.9766-.5728 1.6021-.8853 2.5323-1.8747 2.5323-6.0405 0-8.1754 0-13.0182 0-21.29775 0-1.56218 0-5.20727 1.8604-6.613238-1.8087-.3124365-5.1678-.416582-6.9766.572801z"/><path d="m110.652 0h-12.1499c-.9782 0-1.9563.104162-2.6771.260406 1.8534 1.406194 1.8534 5.051884 1.8534 6.614324v21.24917c0 1.5624 0 5.2081-1.8534 6.6143.7208.1562 1.6475.2604 2.6771.2604h12.1499c5.045 0 10.348-3.1249 10.348-8.6455v-17.70761c0-5.52061-5.303-8.64549-10.348-8.64549zm2.677 24.999c0 1.6145-.824 2.8645-2.934 2.8645h-4.582c-.309 0-.515-.2084-.515-.5208v-19.68676c0-.31248.206-.52081.515-.52081h4.582c2.059 0 2.934 1.04163 2.934 2.86447z"/></g></svg>