<svg width="110" height="114" viewBox="0 0 110 114" fill="none" xmlns="http://www.w3.org/2000/svg">
<path d="M46.9727 21.1028C36.9364 22.9825 29.8818 30.2122 25.8091 42.7919C23.7727 49.0094 22.7545 55.1546 22.7545 61.2276C22.7545 61.9505 22.7545 62.6012 22.7545 63.1796C22.9 63.6134 23.0455 64.6978 23.1909 66.4329H46.9727V113.715H0.5V70.1201C0.5 48.7202 4.79091 32.2365 13.3727 20.669C21.9545 9.10152 33.1545 2.45021 46.9727 0.715088V21.1028ZM109.5 21.1028C101.5 22.4041 95.3909 26.8866 91.1727 34.55C87.1 42.2135 85.0636 51.0337 85.0636 61.0107C85.0636 61.8782 85.0636 62.7458 85.0636 63.6134C85.2091 64.4809 85.4273 65.4208 85.7182 66.4329H109.5V113.715H62.8091V70.1201C62.8091 52.9134 66.4455 37.5865 73.7182 24.1393C80.9909 10.5475 92.9182 2.7394 109.5 0.715088V21.1028Z" fill="#E1E1E1" fill-opacity="0.5"/>
</svg>
