<svg fill="none" viewBox="0 0 183 259" xmlns="http://www.w3.org/2000/svg" xmlns:xlink="http://www.w3.org/1999/xlink"><linearGradient id="a" gradientUnits="userSpaceOnUse" x1="150.111" x2="11.9377" y1="47.3509" y2="87.0862"><stop offset="0" stop-color="#ffc069"/><stop offset="1" stop-color="#fb9100"/></linearGradient><clipPath id="b"><path d="m0 0h183v259h-183z"/></clipPath><g clip-path="url(#b)"><path clip-rule="evenodd" d="m107.316 45.9997 50.672-6.3843-19.807 47.076-12.353-16.2858c-19.619 20.4268-33.179 45.0844-40.8567 68.1544-1.7607 5.291-3.201 10.463-4.3332 15.451 15.0581-5.301 27.8159-5.685 38.3649-2.898 16.987 4.487 27.227 16.933 31.564 27.843 4.186 10.532 5.311 21.237 2.659 30.659-2.685 9.542-9.153 17.398-19.349 22.099-9.822 4.53-22.149 6.432-33.823 2.201-11.8339-4.289-22.1966-14.587-28.4619-32.861-2.9442-8.588-3.698-19.794-2.3753-32.363-4.4462 2.337-9.1232 5.124-14.0373 8.415-27.0193 18.1-40.9279 46.828-44.8658 75.802-3.95386 29.091 2.2385 57.738 14.5498 75.257l-7.2376 5.086c-13.88206-19.754-20.25695-50.785-16.07778-81.534 4.1951-30.867 19.11978-62.14 48.70818-81.96 7.2199-4.836 14.0571-8.7 20.5178-11.706 1.3354-7.194 3.276-14.689 5.8036-22.284 8.1637-24.531 22.6738-50.8056 43.8413-72.4922zm-28.6109 118.2203c-2.0848 13.874-1.5603 25.753 1.2551 33.965 5.5912 16.308 14.305 24.223 23.1078 27.413 8.962 3.248 18.832 1.899 27.105-1.917 7.9-3.643 12.571-9.472 14.538-16.463 2.001-7.111 1.295-15.788-2.365-24.995-3.509-8.829-11.834-18.921-25.603-22.558-9.486-2.506-22.0464-2.073-38.0379 4.555z" fill="url(#a)" fill-rule="evenodd"/><g fill="#fff"><path d="m62.4954 91c.7858 0 .5239 2.9781 3.2088 6.2628 3.1123 3.8072 6.4954 3.5252 6.2866 4.4232-.1528.657-3.6022-.695-7.1379 2.015-2.6854 2.058-2.1179 5.299-3.1215 5.299-.8077 0-.961-2.984-3.3179-5.299-2.1174-2.081-5.4135-1.599-5.4135-2.716 0-1.0346 3.2579 0 6.1993-3.1748 2.576-2.7808 2.2483-6.8102 3.2961-6.8102z"/><path d="m111.497 191c.538 0 .358 1.985 2.195 4.175 2.13 2.539 4.445 2.351 4.302 2.949-.105.438-2.465-.464-4.884 1.343-1.838 1.372-1.449 3.533-2.136 3.533-.553 0-.657-1.989-2.27-3.533-1.449-1.387-3.704-1.066-3.704-1.81 0-.69 2.229 0 4.242-2.117 1.762-1.854 1.538-4.54 2.255-4.54z"/><path d="m33.4983 223c.2895 0 .193 1.158 1.1822 2.436 1.1466 1.48 2.393 1.371 2.3161 1.72-.0563.255-1.3271-.271-2.6298.783-.9893.801-.7802 2.061-1.15 2.061-.2975 0-.354-1.16-1.2224-2.061-.7801-.809-1.9944-.621-1.9944-1.056 0-.402 1.2003 0 2.284-1.235.949-1.081.8283-2.648 1.2143-2.648z"/><path d="m164.498 67c.29 0 .193.9927 1.182 2.0876 1.147 1.2692 2.394 1.1752 2.317 1.4744-.057.219-1.328-.2318-2.63.6716-.99.6861-.78 1.7664-1.15 1.7664-.298 0-.354-.9945-1.223-1.7664-.78-.6935-1.994-.5329-1.994-.9051 0-.345 1.2 0 2.284-1.0584.949-.927.828-2.2701 1.214-2.2701z"/></g></g></svg>