<svg fill="none" viewBox="0 0 300 658" xmlns="http://www.w3.org/2000/svg" xmlns:xlink="http://www.w3.org/1999/xlink"><linearGradient id="a"><stop offset="0" stop-color="#fff"/><stop offset="1" stop-color="#999" stop-opacity="0"/></linearGradient><linearGradient id="b" gradientUnits="userSpaceOnUse" x1="25.7241" x2="25.7398" xlink:href="#a" y1="44.5" y2=".999996"/><linearGradient id="c" gradientUnits="userSpaceOnUse" x1="275.274" x2="275.256" xlink:href="#a" y1="51.5" y2="1.00002"/><linearGradient id="d" gradientUnits="userSpaceOnUse" x1="74" x2="74" xlink:href="#a" y1="64.5901" y2=".5625"/><linearGradient id="e" gradientUnits="userSpaceOnUse" x1="226" x2="226" xlink:href="#a" y1="64.5901" y2=".5625"/><linearGradient id="f" gradientUnits="userSpaceOnUse" x1="148.5" x2="148.5" xlink:href="#a" y1="61.5" y2=".5625"/><g fill-opacity=".3"><path d="m23.5 529.744h.5zm36.3536 72.172c.1952-.195.1952-.512 0-.707l-3.182-3.182c-.1953-.195-.5119-.195-.7071 0-.1953.195-.1953.512 0 .707l2.8284 2.829-2.8284 2.828c-.1953.195-.1953.512 0 .707.1952.195.5118.195.7071 0zm-36.8536-601.3535v529.1815h1v-529.1815zm0 529.1815c0 12.525 1.009 30.546 6.0408 45.452 2.5164 7.456 6.0507 14.167 11.0005 19.021 4.9619 4.865 11.331 7.846 19.4587 7.846v-1c-7.8529 0-13.9741-2.869-18.7586-7.56-4.7966-4.703-8.2648-11.255-10.7532-18.626-4.978-14.748-5.9882-32.635-5.9882-45.133z" fill="url(#b)"/><path d="m277.5 529.744h-.5zm-36.354 72.172c-.195-.195-.195-.512 0-.707l3.182-3.182c.196-.195.512-.195.708 0 .195.195.195.512 0 .707l-2.829 2.829 2.829 2.828c.195.195.195.512 0 .707-.196.195-.512.195-.708 0zm36.854-601.3535v529.1815h-1v-529.1815zm0 529.1815c0 12.525-1.009 30.546-6.041 45.452-2.516 7.456-6.05 14.167-11 19.021-4.962 4.865-11.331 7.846-19.459 7.846v-1c7.853 0 13.974-2.869 18.759-7.56 4.796-4.703 8.264-11.255 10.753-18.626 4.978-14.748 5.988-32.635 5.988-45.133z" fill="url(#c)"/><path d="m74.1464 518.916c.1953.195.5119.195.7071 0l3.182-3.182c.1953-.195.1953-.512 0-.707-.1952-.195-.5118-.195-.7071 0l-2.8284 2.828-2.8284-2.828c-.1953-.195-.5119-.195-.7072 0-.1952.195-.1952.512 0 .707zm-.1464-518.3535v518.0005h1v-518.0005z" fill="url(#d)"/><path d="m226.146 518.916c.196.195.512.195.708 0l3.182-3.182c.195-.195.195-.512 0-.707-.196-.195-.512-.195-.708 0l-2.828 2.828-2.828-2.828c-.196-.195-.512-.195-.708 0-.195.195-.195.512 0 .707zm-.146-518.3535v518.0005h1v-518.0005z" fill="url(#e)"/><path d="m148.646 493.916c.196.195.512.195.708 0l3.182-3.182c.195-.195.195-.512 0-.707-.196-.195-.512-.195-.708 0l-2.828 2.828-2.828-2.828c-.196-.195-.512-.195-.708 0-.195.195-.195.512 0 .707zm-.146-493.3535v493.0005h1v-493.0005z" fill="url(#f)"/></g></svg>