<svg width="1837" height="1152" viewBox="0 0 1837 1152" fill="none" xmlns="http://www.w3.org/2000/svg">
<g clip-path="url(#clip0_3213_366769)">
<path d="M8.35033 1739.96C-59.7505 1811.12 -171.418 1812.35 -241.066 1742.7C-310.714 1673.05 -311.969 1558.9 -243.868 1487.74L1123.41 58.9979C1191.51 -12.1639 1303.18 -13.391 1372.83 56.2572C1442.48 125.905 1443.73 240.055 1375.63 311.217L8.35033 1739.96Z" fill="#7368F8"/>
<path d="M1014.28 998.749C986.624 1027.65 941.28 1028.14 912.999 999.862C884.717 971.581 884.208 925.229 911.861 896.332L1660.21 114.34C1687.87 85.444 1733.21 84.9457 1761.49 113.227C1789.78 141.509 1790.28 187.861 1762.63 216.757L1014.28 998.749Z" fill="#29A42E"/>
</g>
<defs>
<clipPath id="clip0_3213_366769">
<rect width="1837" height="1152" fill="white"/>
</clipPath>
</defs>
</svg>
