<svg fill="none" height="540" viewBox="0 0 389 540" width="389" xmlns="http://www.w3.org/2000/svg"><path d="m-.592937 485.215c-23.455263 23.976-61.483863 23.976-84.939063 0-23.455-23.977-23.455-62.851 0-86.827l347.257-354.9744c23.456-23.9765 61.484-23.9765 84.94 0 23.455 23.9765 23.455 62.8504 0 86.8264z" fill="#fad166"/><path d="m116.153 522.459c-9.238 9.443-24.2162 9.443-33.4543 0-9.2382-9.444-9.2382-24.754 0-34.198l176.2463-180.163c9.238-9.443 24.216-9.443 33.454 0 9.238 9.444 9.238 24.755 0 34.198z" fill="#7368f8"/><path d="m-124.779 348.912c-10.35 10.58-27.131 10.58-37.481 0-10.351-10.58-10.351-27.734 0-38.315l218.2514-223.1016c10.3503-10.5803 27.1315-10.5804 37.4818 0 10.3508 10.5803 10.3508 27.7346 0 38.3146z" fill="#29a42e"/><path d="m160.307 59.6315c-10.35 10.5803-27.131 10.5805-37.481.0002-10.351-10.5803-10.351-27.7346 0-38.3149 10.35-10.5803 27.131-10.5805 37.482-.0002 10.35 10.5803 10.35 27.7346-.001 38.3149z" fill="#7368f8"/></svg>