<svg width="513" height="668" viewBox="0 0 513 668" fill="none" xmlns="http://www.w3.org/2000/svg">
<g clip-path="url(#clip0_2241_167292)">
<path d="M433.538 17.0993C442.776 7.65561 457.755 7.65561 466.993 17.0993C476.232 26.543 476.232 41.8542 466.993 51.2978L322.536 198.965C313.298 208.408 298.32 208.408 289.081 198.965C279.843 189.521 279.843 174.21 289.081 164.766L433.538 17.0993Z" fill="#7368F8"/>
<path d="M958.697 -169.95C970.07 -181.576 988.509 -181.576 999.882 -169.95C1011.25 -158.324 1011.25 -139.475 999.881 -127.85L373.129 512.831C361.756 524.457 343.317 524.457 331.944 512.831C320.571 501.205 320.571 482.356 331.944 470.731L958.697 -169.95Z" fill="#FAD166"/>
<path d="M620.82 -53.5867C644.275 -77.5632 682.303 -77.5632 705.759 -53.5867C729.214 -29.6101 729.214 9.26347 705.759 33.24L231.223 518.321C207.768 542.297 169.739 542.297 146.284 518.321C122.828 494.344 122.828 455.471 146.284 431.494L620.82 -53.5867Z" fill="#29A42E"/>
<path d="M42.4694 537.618C65.9239 513.642 103.953 513.644 127.407 537.619C150.862 561.595 150.863 600.469 127.408 624.445C103.954 648.42 65.9253 648.419 42.4708 624.443C19.0163 600.467 19.0149 561.594 42.4694 537.618Z" fill="#7368F8"/>
</g>
<defs>
<clipPath id="clip0_2241_167292">
<rect width="513" height="668" fill="white"/>
</clipPath>
</defs>
</svg>
