<svg width="208" height="246" viewBox="0 0 208 246" fill="none" xmlns="http://www.w3.org/2000/svg">
<g clip-path="url(#clip0_2241_166600)">
<path d="M160.95 10.2573C164.38 6.75133 169.941 6.75132 173.37 10.2573C176.8 13.7633 176.8 19.4475 173.37 22.9535L119.741 77.7749C116.311 81.2808 110.75 81.2808 107.32 77.7749C103.891 74.2689 103.891 68.5846 107.32 65.0787L160.95 10.2573Z" fill="#7368F8"/>
<path d="M355.918 -59.1852C360.14 -63.5012 366.985 -63.5012 371.207 -59.1852C375.43 -54.8691 375.43 -47.8715 371.207 -43.5555L138.525 194.297C134.303 198.613 127.457 198.613 123.235 194.297C119.013 189.981 119.013 182.984 123.235 178.668L355.918 -59.1852Z" fill="#FAD166"/>
<path d="M230.479 -15.9854C239.187 -24.8866 253.305 -24.8866 262.013 -15.9853C270.721 -7.08405 270.721 7.34778 262.013 16.2491L85.8412 196.335C77.1334 205.237 63.0153 205.237 54.3075 196.335C45.5997 187.434 45.5997 173.002 54.3075 164.101L230.479 -15.9854Z" fill="#29A42E"/>
<path d="M15.7649 203.499C24.4724 194.598 38.5906 194.599 47.2981 203.5C56.0056 212.401 56.0061 226.833 47.2986 235.734C38.5911 244.635 24.4729 244.634 15.7654 235.733C7.05795 226.832 7.05743 212.4 15.7649 203.499Z" fill="#7368F8"/>
</g>
<defs>
<clipPath id="clip0_2241_166600">
<rect width="208" height="246" fill="white"/>
</clipPath>
</defs>
</svg>
