<svg width="389" height="540" viewBox="0 0 389 540" fill="none" xmlns="http://www.w3.org/2000/svg">
<path d="M-0.592937 485.215C-24.0482 509.191 -62.0768 509.191 -85.532 485.215C-108.987 461.238 -108.987 422.364 -85.532 398.388L261.725 43.4136C285.181 19.4371 323.209 19.4371 346.665 43.4136C370.12 67.3901 370.12 106.264 346.665 130.24L-0.592937 485.215Z" fill="#FAD166"/>
<path d="M116.153 522.459C106.915 531.902 91.9368 531.902 82.6987 522.459C73.4605 513.015 73.4605 497.705 82.6987 488.261L258.945 308.098C268.183 298.655 283.161 298.655 292.399 308.098C301.637 317.542 301.637 332.853 292.399 342.296L116.153 522.459Z" fill="#7368F8"/>
<path d="M-124.779 348.912C-135.129 359.492 -151.91 359.492 -162.26 348.912C-172.611 338.332 -172.611 321.178 -162.26 310.597L55.9914 87.4954C66.3417 76.9151 83.1229 76.915 93.4732 87.4954C103.824 98.0757 103.824 115.23 93.4732 125.81L-124.779 348.912Z" fill="#29A42E"/>
<path d="M160.307 59.6315C149.957 70.2118 133.176 70.212 122.826 59.6317C112.475 49.0514 112.475 31.8971 122.826 21.3168C133.176 10.7365 149.957 10.7363 160.308 21.3166C170.658 31.8969 170.658 49.0512 160.307 59.6315Z" fill="#7368F8"/>
</svg>
