<svg fill="none" height="668" viewBox="0 0 513 668" width="513" xmlns="http://www.w3.org/2000/svg" xmlns:xlink="http://www.w3.org/1999/xlink"><clipPath id="a"><path d="m0 0h513v668h-513z"/></clipPath><g clip-path="url(#a)"><path d="m433.538 17.0993c9.238-9.44369 24.217-9.44369 33.455 0 9.239 9.4437 9.239 24.7549 0 34.1985l-144.457 147.6672c-9.238 9.443-24.216 9.443-33.455 0-9.238-9.444-9.238-24.755 0-34.199z" fill="#7368f8"/><path d="m958.697-169.95c11.373-11.626 29.812-11.626 41.185 0 11.368 11.626 11.368 30.475-.001 42.1l-626.752 640.681c-11.373 11.626-29.812 11.626-41.185 0s-11.373-30.475 0-42.1z" fill="#fad166"/><path d="m620.82-53.5867c23.455-23.9765 61.483-23.9765 84.939 0 23.455 23.9766 23.455 62.85017 0 86.8267l-474.536 485.081c-23.455 23.976-61.484 23.976-84.939 0-23.456-23.977-23.456-62.85 0-86.827z" fill="#29a42e"/><path d="m42.4694 537.618c23.4545-23.976 61.4836-23.974 84.9376.001 23.455 23.976 23.456 62.85.001 86.826-23.454 23.975-61.4827 23.974-84.9372-.002s-23.4559-62.849-.0014-86.825z" fill="#7368f8"/></g></svg>