<svg width="149" height="199" viewBox="0 0 149 199" fill="none" xmlns="http://www.w3.org/2000/svg">
<g clip-path="url(#clip0_2241_166566)">
<path d="M3.97779 179.136C-4.73 188.037 -18.8481 188.037 -27.5559 179.136C-36.2637 170.234 -36.2637 155.803 -27.5559 146.901L101.364 15.1171C110.071 6.21582 124.19 6.21582 132.897 15.1171C141.605 24.0184 141.605 38.4502 132.897 47.3515L3.97779 179.136Z" fill="#FAD166"/>
<path d="M47.3193 192.964C43.8897 196.469 38.3291 196.469 34.8994 192.964C31.4698 189.458 31.4698 183.774 34.8994 180.268L100.331 113.382C103.761 109.876 109.321 109.876 112.751 113.382C116.181 116.888 116.181 122.572 112.751 126.078L47.3193 192.964Z" fill="#7368F8"/>
<path d="M-42.1284 128.534C-45.9709 132.462 -52.2009 132.462 -56.0435 128.534C-59.8861 124.606 -59.8861 118.238 -56.0435 114.31L24.9826 31.4834C28.8252 27.5555 35.0552 27.5554 38.8978 31.4834C42.7403 35.4113 42.7403 41.7798 38.8978 45.7077L-42.1284 128.534Z" fill="#29A42E"/>
<path d="M63.7115 21.1387C59.869 25.0667 53.6389 25.0667 49.7963 21.1388C45.9538 17.2109 45.9538 10.8423 49.7964 6.91439C53.639 2.98645 59.8691 2.98637 63.7116 6.91432C67.5542 10.8423 67.5541 17.2108 63.7115 21.1387Z" fill="#7368F8"/>
</g>
<defs>
<clipPath id="clip0_2241_166566">
<rect width="149" height="199" fill="white"/>
</clipPath>
</defs>
</svg>
