<svg width="305" height="53" viewBox="0 0 305 53" fill="none" xmlns="http://www.w3.org/2000/svg">
<path d="M88.2012 37.9709C84.3019 37.9709 80.6477 37.0931 77.3813 34.9291C74.5233 33.051 72.4001 30.5196 71.0936 27.3554C69.1134 22.558 68.9705 17.6586 70.5628 12.7592C72.196 7.77805 75.5236 4.24637 80.4027 2.24576C83.812 0.837172 87.3642 0.530956 91.0184 0.980072C93.9377 1.32712 96.6937 2.20493 99.1639 3.83808C102.614 6.12449 104.9 9.24788 105.676 13.3716C105.819 14.1473 105.819 14.1473 105.023 14.2494C102.634 14.5556 100.225 14.8414 97.8369 15.168C97.4082 15.2293 97.3878 14.9639 97.3266 14.7393C96.2854 11.3301 93.8765 9.34996 90.508 8.53338C87.5479 7.81888 84.7715 8.4109 82.3421 10.3094C80.7294 11.5751 79.6474 13.2287 79.0554 15.168C78.055 18.4752 78.1367 21.7619 79.5657 24.9261C81.0764 28.2536 84.3428 30.6217 88.4257 30.5196C90.9572 30.4584 93.1415 29.5806 94.9993 27.8862C96.1425 26.8451 96.9183 25.5385 97.3674 24.0687C97.4899 23.7012 97.6328 23.5992 98.0002 23.64C100.511 23.9666 103.022 24.2728 105.533 24.5791C105.86 24.6199 105.901 24.7424 105.84 25.0486C104.839 30.0705 101.838 33.541 97.3878 35.8478C94.5502 37.338 91.5288 37.9709 88.2012 37.9709Z" fill="#FEFEFE"/>
<path d="M245.911 19.3744C245.911 13.7401 245.911 8.12614 245.891 2.49178C245.891 2.06307 245.972 1.92017 246.442 1.94059C249.035 1.961 251.607 1.961 254.199 1.94059C254.567 1.94059 254.689 2.00183 254.689 2.41012C254.669 3.67581 254.669 4.96191 254.689 6.2276C254.689 6.39092 254.546 6.63589 254.873 6.6563C255.098 6.67672 255.363 6.75838 255.526 6.43175C256.506 4.49238 258.078 3.12462 260.018 2.22639C262.59 1.04236 265.223 0.919871 267.877 1.961C268.163 2.06307 268.204 2.22639 268.204 2.49178C268.204 4.88026 268.184 7.28915 268.204 9.67763C268.204 10.0451 268.122 10.1063 267.775 9.96343C266.203 9.37141 264.591 8.98354 262.917 8.94271C259.385 8.84064 256.996 10.8208 255.69 13.9034C254.996 15.5161 254.812 17.2514 254.812 18.9866C254.812 24.7434 254.812 30.5207 254.812 36.2775C254.812 36.7062 254.71 36.8083 254.281 36.8083C251.648 36.7879 249.014 36.7879 246.381 36.8083C245.993 36.8083 245.911 36.7062 245.911 36.3388C245.911 30.684 245.911 25.0292 245.911 19.3744Z" fill="#FEFEFE"/>
<path d="M22.9005 10.1259C21.6961 9.63597 20.4712 9.32976 19.2259 9.12562C17.3681 8.8194 15.5512 8.88064 13.8772 9.84012C11.8357 11.0242 10.6313 12.8819 10.0188 15.1274C9.65135 16.434 9.54927 17.7609 9.54927 19.1082C9.54927 24.8447 9.54927 30.5607 9.54927 36.2971C9.54927 36.7054 9.46762 36.8279 9.01849 36.8279C6.38499 36.8075 3.75148 36.8075 1.11798 36.8279C0.730097 36.8279 0.648438 36.7258 0.648438 36.3584C0.689267 25.0488 0.689267 13.7393 0.668852 2.42971C0.668852 2.04184 0.730097 1.91935 1.15881 1.91935C3.75148 1.93977 6.36457 1.93977 8.95725 1.91935C9.36554 1.91935 9.42679 2.04184 9.42679 2.4093C9.40637 3.65457 9.40637 4.89985 9.42679 6.12471C9.42679 6.28802 9.28388 6.57382 9.56969 6.63507C9.83508 6.69631 10.1209 6.69631 10.3046 6.34926C11.0396 4.89985 12.1419 3.75664 13.5302 2.87883C16.3678 1.12319 19.3484 0.735319 22.4922 1.89894C22.8393 2.02142 22.9414 2.20515 22.9414 2.57261C22.9209 4.92026 22.9414 7.26791 22.9414 9.61556C22.9209 9.77888 22.9209 9.92178 22.9005 10.1259Z" fill="#FEFEFE"/>
<path fill-rule="evenodd" clip-rule="evenodd" d="M157.778 27.1694V27.1755V27.1815C157.778 35.4677 157.778 43.7335 157.758 52.0197C157.758 52.4484 157.86 52.5505 158.289 52.5505C160.902 52.5301 163.535 52.5301 166.148 52.5505C166.597 52.5505 166.699 52.4484 166.699 51.9993C166.679 45.63 166.679 39.2403 166.679 32.8711C166.679 32.3607 166.802 32.2586 167.251 32.3607C167.397 32.39 167.46 32.4929 167.521 32.5939C167.545 32.6337 167.569 32.6731 167.598 32.7077C168.598 34.1163 169.843 35.2595 171.334 36.1169C174.702 38.0563 178.336 38.4238 182.051 37.7093C188.094 36.5456 192.116 32.8302 194.361 27.1755C195.505 24.3174 195.852 21.3369 195.709 18.2748C195.546 14.7431 194.668 11.4156 192.769 8.39425C191.34 6.14867 189.482 4.3522 187.175 3.00486C183.95 1.12673 180.479 0.555133 176.805 0.943005C173.538 1.29005 170.742 2.61698 168.516 5.06671C168.149 5.45458 167.802 5.88328 167.516 6.35281C167.357 6.5998 167.138 6.57236 166.936 6.54717C166.904 6.54321 166.873 6.53931 166.842 6.53654C166.605 6.52073 166.637 6.34576 166.664 6.20126C166.672 6.15916 166.679 6.11966 166.679 6.08742C166.659 4.86256 166.659 3.6377 166.679 2.41284C166.699 2.02497 166.577 1.94331 166.21 1.94331C163.576 1.96372 160.943 1.96372 158.309 1.94331C157.86 1.94331 157.758 2.04538 157.758 2.4945C157.778 10.7195 157.778 18.9445 157.778 27.1694ZM184.053 27.0743C185.972 24.9104 186.85 22.2973 186.85 19.276C186.83 18.5819 186.768 17.7858 186.626 16.9896C185.85 12.3555 182.093 8.8851 177.418 8.49722C173.111 8.15018 169.171 10.457 167.415 14.3766C166.068 17.3979 165.986 20.4804 167.048 23.563C167.701 25.482 168.865 27.0743 170.498 28.3196C172.641 29.9527 175.091 30.5243 177.745 30.2793C180.256 30.0344 182.379 28.932 184.053 27.0743Z" fill="#FEFEFE"/>
<path fill-rule="evenodd" clip-rule="evenodd" d="M211.103 22.0096C215.635 22.03 220.188 22.03 224.72 22.03C226.236 22.03 227.752 22.0277 229.27 22.0255C232.309 22.0209 235.355 22.0164 238.418 22.03C238.827 22.03 238.97 21.9279 238.99 21.5196C239.153 18.0288 238.929 14.5992 237.5 11.3329C235.907 7.65829 233.335 4.88194 229.803 3.00382C226.925 1.47274 223.822 0.799067 220.576 0.799067C215.635 0.778653 211.165 2.06476 207.347 5.35147C204.611 7.71953 202.856 10.6592 201.998 14.1296C201.039 18.0288 201.161 21.9279 202.448 25.7454C203.53 29.0117 205.408 31.7881 208.143 33.952C211.267 36.4221 214.88 37.647 218.82 37.9328C222.372 38.1777 225.843 37.7695 229.17 36.4017C232.947 34.8502 235.887 32.4005 237.581 28.6034C237.745 28.2564 237.745 28.1543 237.357 28.0318L237.356 28.0317C235.152 27.3581 232.947 26.6844 230.763 25.97C230.314 25.8271 230.13 25.9291 229.946 26.2966C229.579 26.9907 229.089 27.6235 228.517 28.1543C226.108 30.4203 223.25 31.3185 220.004 31.094C217.473 30.9307 215.248 30.012 213.472 28.1543C211.961 26.5824 211.103 24.7043 210.675 22.5812C210.573 22.1321 210.593 22.0096 211.103 22.0096ZM210.983 16.0482H220.21C223.272 16.0482 226.355 16.0482 229.458 16.0278C229.785 16.0278 229.887 15.987 229.825 15.6195C229.519 14.0884 228.968 12.6594 228.009 11.4141C226.375 9.31146 224.211 8.10702 221.598 7.73956C219.373 7.43334 217.25 7.71914 215.29 8.86235C212.697 10.3934 211.248 12.7207 210.636 15.6195C210.574 15.9053 210.595 16.0482 210.983 16.0482Z" fill="#FEFEFE"/>
<path fill-rule="evenodd" clip-rule="evenodd" d="M38.8031 28.5379C36.925 26.7823 35.9246 24.5776 35.5368 22.0258H36.1288H63.2804C63.3144 22.0258 63.3485 22.0235 63.3825 22.0212C63.4505 22.0167 63.5186 22.0122 63.5866 22.0258C63.852 22.0666 63.9133 21.9237 63.9337 21.6787C64.1174 18.7391 64.0154 15.7994 63.0763 12.9618C61.933 9.51177 59.9936 6.61293 57.0539 4.44901C54.4204 2.48923 51.4603 1.34603 48.1939 0.978567C43.8864 0.468208 39.7218 0.958152 35.843 2.95876C31.2088 5.32682 28.2079 9.08306 26.9626 14.1254C25.8602 18.5349 26.1664 22.924 27.9629 27.1498C29.3919 30.4977 31.6375 33.172 34.7406 35.0909C37.1291 36.5812 39.7218 37.459 42.5186 37.7856C47.2752 38.3572 51.8686 37.7652 56.1148 35.4584C59.1362 33.8253 61.4023 31.4572 62.6884 28.1909L55.4616 25.9249C55.1758 25.8432 55.0941 25.9861 54.992 26.1699C54.3388 27.3335 53.4405 28.293 52.3585 29.0891C50.0925 30.7223 47.5406 31.2939 44.7846 31.0897C42.5186 30.906 40.4771 30.0894 38.8031 28.5379ZM36.0364 16.0456H45.1618C45.6926 16.0456 46.2233 16.0456 46.7745 16.0252H54.4301C54.461 16.0252 54.4977 16.0303 54.5365 16.0357C54.7024 16.0588 54.9046 16.087 54.8384 15.7394C54.3892 13.2897 53.2664 11.2074 51.2658 9.65591C49.5101 8.28815 47.4891 7.67572 45.2843 7.63489C42.5895 7.57365 40.2214 8.43105 38.3228 10.3704C36.8938 11.8198 36.0772 13.5959 35.6281 15.5557C35.526 16.0048 35.6485 16.0456 36.0364 16.0456Z" fill="#FEFEFE"/>
<path fill-rule="evenodd" clip-rule="evenodd" d="M304.248 24.4185V24.4163C304.248 23.5645 304.25 22.7115 304.251 21.8578C304.255 19.2946 304.259 16.7257 304.228 14.1683C304.228 13.3517 304.208 12.5351 304.085 11.7186C303.473 7.71735 301.288 4.81852 297.777 2.89957C295.735 1.77678 293.51 1.18476 291.183 0.939789C287.447 0.57233 283.752 0.756059 280.261 2.24631C275.668 4.20609 272.953 7.57445 272.728 12.7189C272.708 13.0863 272.769 13.2088 273.177 13.2088C275.77 13.1884 278.383 13.1884 280.976 13.2088C281.384 13.2088 281.425 13.0659 281.445 12.7189C281.547 10.412 282.976 8.53393 285.181 7.81943C286.957 7.24782 288.754 7.18658 290.57 7.59487C292.53 8.04398 294.041 9.08512 294.878 10.9837C295.283 11.8992 295.308 12.8603 295.334 13.8276C295.338 13.9819 295.342 14.1363 295.348 14.2908C295.368 14.7603 295.245 14.9032 294.776 14.9644C292.247 15.2347 289.737 15.5414 287.21 15.8501C287.065 15.8679 286.919 15.8857 286.773 15.9035C283.793 16.271 280.873 16.8834 278.117 18.1287C275.913 19.1086 273.912 20.4151 272.605 22.4973C270.809 25.3554 270.605 28.4175 271.83 31.5205C273.055 34.5622 275.566 36.1954 278.587 37.0936C281.057 37.8285 283.609 37.8898 286.161 37.5019C288.692 37.114 290.979 36.1954 292.877 34.4397C293.51 33.8477 294.061 33.2149 294.531 32.5004C294.715 32.2554 294.919 32.1738 295.184 32.235C295.433 32.2971 295.398 32.4656 295.367 32.6145C295.357 32.6614 295.348 32.7063 295.348 32.7454C295.368 33.9294 295.368 35.1338 295.348 36.3179C295.327 36.7057 295.429 36.8282 295.837 36.8282C298.471 36.8078 301.104 36.8078 303.738 36.8282C304.167 36.8282 304.269 36.7262 304.269 36.2975C304.248 32.3378 304.248 28.3782 304.248 24.4185ZM294.401 27.1305C295.177 25.7219 295.381 24.1908 295.34 22.823C295.34 22.5685 295.337 22.3398 295.335 22.1269C295.33 21.7423 295.327 21.4091 295.34 21.0674C295.36 20.7612 295.279 20.7 294.972 20.7408C294.065 20.8494 293.156 20.948 292.247 21.0466C290.25 21.2631 288.253 21.4797 286.276 21.8023C284.377 22.1085 282.581 22.6597 281.111 24.0275C279.845 25.2319 279.396 27.355 280.172 28.9065C280.784 30.1314 281.825 30.8459 283.091 31.1929C285.724 31.9483 288.317 31.7237 290.787 30.5397C292.359 29.7843 293.564 28.6616 294.401 27.1305Z" fill="#FEFEFE"/>
<rect width="11.6191" height="11.6191" rx="5.80955" transform="matrix(-1 0 0 1 150.734 0.549805)" fill="#FEFEFE"/>
<path fill-rule="evenodd" clip-rule="evenodd" d="M139.109 11.5825V32.1332C139.109 35.3417 141.71 37.9427 144.919 37.9427C148.127 37.9427 150.728 35.3417 150.728 32.1332V11.5868C149.298 13.1748 147.226 14.1731 144.921 14.1731C142.613 14.1731 140.54 13.173 139.109 11.5825Z" fill="#FEFEFE"/>
<rect width="11.6191" height="11.6191" rx="5.80955" transform="matrix(-1 0 0 1 123.582 0.75)" fill="#FEFEFE"/>
<path fill-rule="evenodd" clip-rule="evenodd" d="M111.961 11.7827V32.3334C111.961 35.5419 114.562 38.1429 117.77 38.1429C120.979 38.1429 123.58 35.5419 123.58 32.3334V11.787C122.15 13.375 120.078 14.3733 117.772 14.3733C115.465 14.3733 113.391 13.3732 111.961 11.7827Z" fill="#FEFEFE"/>
<rect width="11.4083" height="11.408" rx="5.70402" transform="matrix(-1 0 0 1 137.094 26.9736)" fill="#FEFEFE"/>
</svg>
