<svg fill="none" height="558" viewBox="0 0 558 558" width="558" xmlns="http://www.w3.org/2000/svg" xmlns:xlink="http://www.w3.org/1999/xlink"><clipPath id="a"><path d="m0 0h558v558h-558z"/></clipPath><g clip-path="url(#a)"><path clip-rule="evenodd" d="m99.6189 0h-99.6189v320l184.15-184.15c65.639-65.6389 172.061-65.6389 237.7 0 65.64 65.64 65.64 172.062 0 237.701l-184.449 184.449h99.317l95.879-100.187c16.801-17.557 44.351-17.86 61.534-.676 17.183 17.183 17.493 45.345.691 62.901l-36.329 37.962h99.507v-117.941c-12.655 1.563-25.867-2.545-35.691-12.369-17.183-17.183-17.493-45.345-.691-62.901 9.851-10.294 23.397-14.656 36.382-13.041v-351.748h-336.606l-108.581 113.461c-16.8014 17.556-44.3513 17.859-61.5345.676-17.1832-17.1832-17.4927-45.3452-.6912-62.9017z" fill="#7368f8" fill-rule="evenodd"/></g></svg>