<svg fill="none" height="35" viewBox="0 0 183 35" width="183" xmlns="http://www.w3.org/2000/svg"><g fill="#c9201a"><path d="m.158691 30.6264h5.009189l-.21208-13.0778h10.0184v-4.2072h-10.0184l.17169-8.384 11.22021.12166v-4.511346h-16.189009z"/><path d="m27.1831.567809.1717 16.250991-.1717 13.8483h5.0496l-.1717-16.768.1717-13.331291z"/><path d="m45.2998 30.6265h16.189v-4.3897l-11.1798.0811-.2121-8.8097h10.3214v-4.2579h-10.3214l.2121-8.4246 11.1798.1318v-4.389691h-16.189z"/><path d="m87.3977 18.5827c4.171-1.1759 6.2514-4.1463 6.2514-8.90099.0101-6.44767-3.4337-9.6715019-10.3113-9.6715019-3.6862 0-7.13.2027569-10.3213.5981329l.1313 15.906259-.2222 14.1119h5.0496v-11.5267l4.7062.1723 5.8272 11.3544h5.8777l-6.9785-11.8207v-.2231zm-3.5246-3.3961c-1.6967 0-3.6761-.1318-5.9282-.3853l.0404-10.45209c1.939-.25345 3.8477-.38524 5.7161-.38524 1.8683 0 3.1004.31427 3.7064.94282.6766.78061 1.02 2.26074 1.02 4.45051 0 2.1898-.3333 3.7105-1.0099 4.562-.6666.8415-1.8482 1.2673-3.5448 1.2673z"/><path d="m110.441.567809-8.524 30.058691h5.181l1.929-7.4006h8.908l1.888 7.3905h5.181l-8.483-30.048591zm-.475 18.440791 3.384-14.02069h.252l3.383 14.02069z"/><path d="m150.192 18.238c-.202-.4562-.515-.9124-.939-1.3585s-.798-.8009-1.111-1.0746-.758-.5779-1.323-.9023c-.576-.3244-1.02-.5778-1.353-.7299-.334-.1622-.818-.3751-1.455-.6691-.646-.2838-1.484-.6792-2.524-1.1861-1.041-.4968-1.96-1.0746-2.737-1.7235-.788-.64877-1.182-1.55104-1.182-2.70676 0-1.16585.313-2.00729.939-2.53446s1.768-.79075 3.404-.79075c1.646 0 4.019.30414 7.13.90227l.818-4.21734-1.162-.30414c-2.201-.628547-4.423-.94282-6.685-.94282-3.081 0-5.464.780614-7.13 2.34184-1.667 1.56123-2.505 3.55839-2.505 6.00161 0 1.17599.243 2.38235.727 3.60905.172.4562.475.9124.919 1.3585.445.4461.788.7806 1.03 1.0138.243.2331.677.517 1.303.8617s1.061.5779 1.303.7096c.242.1318 1.202.5779 2.868 1.3281 1.667.7603 2.979 1.541 3.919 2.3418.939.8009 1.414 1.7944 1.414 2.9704 0 2.7474-1.253 4.1261-3.767 4.1261-2.768 0-5.797-.74-9.08-2.2404-.141.3751-.272.7198-.383 1.0543-.111.3346-.253.7299-.425 1.2064-.171.4765-.383 1.0949-.646 1.8654l1.323.6893c.859.4258 2.091.8618 3.706 1.2876 1.616.4257 3.162.6488 4.646.6488 2.909 0 5.272-.8617 7.07-2.575 1.797-1.7133 2.696-3.9741 2.696-6.7518 0-1.2875-.273-2.494-.808-3.6091z"/></g></svg>