<svg fill="none" height="44" viewBox="0 0 183 44" width="183" xmlns="http://www.w3.org/2000/svg"><path d="m.158691 43.3568h5.455769l-.23099-14.2437h10.91153v-4.5823h-10.91153l.187-9.1314 12.22053.1325v-4.9136h-17.632309z" fill="#c9201a"/><path d="m29.5924 10.6184.187 17.6998-.187 15.0829h5.4998l-.187-18.2629.187-14.5198z" fill="#c9201a"/><path d="m49.3243 43.3569h17.6322v-4.781l-12.1765.0883-.231-9.5952h11.2416v-4.6375h-11.2416l.231-9.1756 12.1765.1436v-4.7811h-17.6322z" fill="#c9201a"/><path d="m95.1752 30.2394c4.5428-1.2808 6.8088-4.516 6.8088-9.6945.011-7.0225-3.7399-10.5338-11.2306-10.5338-4.0148 0-7.7657.2209-11.2415.6515l.143 17.3243-.242 15.37h5.4998v-12.5543l5.1257.1877 6.3468 12.3666h6.4018l-7.6008-12.8746v-.2429zm-3.8388-3.6989c-1.8479 0-4.0038-.1436-6.4567-.4196l.044-11.384c2.1119-.276 4.1908-.4195 6.2257-.4195s3.3769.3423 4.0368 1.0268c.737.8502 1.111 2.4623 1.111 4.8473s-.363 4.0413-1.1 4.9688c-.7259.9164-2.0129 1.3802-3.8608 1.3802z" fill="#c9201a"/><path d="m120.273 10.6184-9.284 32.7385h5.643l2.101-8.0604h9.702l2.057 8.0494h5.642l-9.239-32.7275zm-.517 20.0848 3.685-15.2706h.275l3.685 15.2706z" fill="#c9201a"/><path d="m163.568 29.8639c-.22-.4968-.561-.9937-1.023-1.4795-.462-.4859-.869-.8723-1.21-1.1705-.341-.2981-.825-.6293-1.441-.9827-.627-.3533-1.111-.6293-1.474-.795-.363-.1766-.891-.4085-1.584-.7287-.704-.3092-1.617-.7398-2.75-1.2919-1.133-.541-2.134-1.1704-2.981-1.8771-.858-.7066-1.287-1.6893-1.287-2.9481 0-1.2698.341-2.1862 1.023-2.7604s1.925-.8613 3.707-.8613c1.793 0 4.378.3313 7.766.9828l.891-4.5934-1.265-.3312c-2.398-.6846-4.818-1.0269-7.282-1.0269-3.355 0-5.951.8502-7.765 2.5506-1.815 1.7004-2.728 3.8756-2.728 6.5367 0 1.2808.264 2.5948.792 3.9308.187.4969.517.9938 1.001 1.4796s.858.8502 1.122 1.1042c.264.2539.737.5631 1.418.9385.682.3754 1.155.6294 1.419.7729.264.1436 1.309.6294 3.124 1.4465 1.815.8281 3.245 1.6783 4.268 2.5506s1.54 1.9544 1.54 3.2352c0 2.9923-1.364 4.494-4.103 4.494-3.014 0-6.314-.8061-9.888-2.4402-.154.4085-.297.7839-.418 1.1483s-.275.795-.462 1.3139c-.187.519-.418 1.1925-.704 2.0317l1.441.7508c.935.4638 2.277.9386 4.036 1.4023 1.76.4638 3.443.7067 5.06.7067 3.168 0 5.742-.9385 7.7-2.8046 1.958-1.866 2.937-4.3283 2.937-7.3537 0-1.4023-.297-2.7163-.88-3.9309z" fill="#c9201a"/><g fill="#f4f4f4"><path d="m0 5.05489v-4.997288h.621091v4.454718h1.591989v.54257z"/><path d="m4.10603.528775-.57826 2.727085h1.16366zm.9709 4.526115-.27128-1.2636h-1.3921l-.27842 1.2636h-.63537l1.20649-4.997288h.82098l1.18507 4.997288z"/><path d="m10.4009 2.52769c0-.42834-.019-.77339-.0571-1.03515-.0333-.26177-.0833-.46404-.1499-.606816-.0666-.14278-.1452-.237966-.23558-.285559-.08567-.047594-.18323-.07139-.2927-.07139-.06663 0-.1404.00238-.22131.007139-.07615 0-.14992.002379-.22131.007139-.08566.004759-.16895.009518-.24986.014277v3.99783c.07139.00476.14754.00952.22845.01428.06663.00476.1404.00952.22131.01427h.23558c.10947 0 .20941-.03331.29984-.09994.09518-.06663.17368-.17848.23558-.33553.0666-.16182.1166-.37361.1499-.63537.0381-.26652.0571-.59492.0571-.98518zm.6354-.04997c0 .53304-.0309.9709-.0928 1.31357-.0571.33791-.1475.60443-.2713.79956-.119.19514-.2689.33078-.4497.40693-.1809.07139-.3903.10708-.62827.10708-.13802 0-.2808-.00238-.42834-.00714-.14278 0-.27604-.00476-.39978-.01428-.14278-.00952-.2808-.01903-.41406-.02855v-4.997288c.1285-.0095185.25938-.0190371.39264-.0285559.11423-.0095186.23797-.0142778.37123-.0142778.13802-.0047593.2689-.00713891.39264-.00713891.25225 0 .47356.03093561.66394.09280661.1904.057112.3498.176095.4783.356949.1285.176095.2237.425959.2856.749595.0666.31887.0999.74245.0999 1.27074z"/><path d="m13.1483.528775-.5783 2.727085h1.1637zm.9709 4.526115-.2713-1.2636h-1.3921l-.2784 1.2636h-.6354l1.2065-4.997288h.821l1.185 4.997288z"/><path d="m17.2103 5.05489-1.0922-4.469004v4.469004h-.5783v-4.997288h1.0138l1.0994 4.468998v-4.468998h.5782v4.997288z"/><path d="m19.7938 4.5266h1.7633v.52829h-2.3987v-.62823l1.8419-3.840774h-1.6777v-.528284h2.3059v.62823z"/><path d="m23.7313.528775-.5783 2.727085h1.1636zm.9709 4.526115-.2713-1.2636h-1.3921l-.2784 1.2636h-.6354l1.2065-4.997288h.821l1.185 4.997288z"/><path d="m30.0262 2.52769c0-.42834-.0191-.77339-.0572-1.03515-.0333-.26177-.0832-.46404-.1499-.606816-.0666-.14278-.1451-.237966-.2356-.285559-.0856-.047594-.1832-.07139-.2927-.07139-.0666 0-.1404.00238-.2213.007139-.0761 0-.1499.002379-.2213.007139-.0856.004759-.1689.009518-.2498.014277v3.99783c.0714.00476.1475.00952.2284.01428.0666.00476.1404.00952.2213.01427h.2356c.1095 0 .2094-.03331.2998-.09994.0952-.06663.1738-.17848.2356-.33553.0667-.16182.1166-.37361.1499-.63537.0381-.26652.0572-.59492.0572-.98518zm.6353-.04997c0 .53304-.0309.9709-.0928 1.31357-.0571.33791-.1475.60443-.2713.79956-.1189.19514-.2689.33078-.4497.40693-.1809.07139-.3903.10708-.6282.10708-.1381 0-.2808-.00238-.4284-.00714-.1428 0-.276-.00476-.3998-.01428-.1427-.00952-.2808-.01903-.414-.02855v-4.997288c.1285-.0095185.2594-.0190371.3926-.0285559.1142-.0095186.238-.0142778.3712-.0142778.1381-.0047593.2689-.00713891.3927-.00713891.2522 0 .4735.03093561.6639.09280661.1904.057112.3498.176095.4783.356949.1285.176095.2237.425959.2856.749595.0666.31887.0999.74245.0999 1.27074z"/><path d="m31.735 5.05489v-4.997288h2.3416v.521146h-1.7205v1.634822h1.542v.52115h-1.542v1.79902h1.7205v.52115z"/><path d="m36.9637 5.05489v-4.997288h.6211v4.454718h1.592v.54257z"/><path d="m41.0698.528775-.5783 2.727085h1.1637zm.9709 4.526115-.2713-1.2636h-1.3921l-.2784 1.2636h-.6354l1.2065-4.997288h.821l1.185 4.997288z"/><path d="m45.5745 3.63423c0 .29508-.0333.5378-.1.72818-.0666.19037-.1618.34029-.2855.44975-.1238.10947-.2737.18562-.4498.22845-.1713.04283-.3641.06425-.5783.06425-.1142 0-.2498-.00952-.4069-.02856-.157-.01903-.2974-.04521-.4212-.07852v-.52115c.1095.02856.238.05473.3855.07853.1476.01904.3189.02855.514.02855.2475 0 .426-.07138.5355-.21416.1142-.14278.1713-.36409.1713-.66393 0-.17134-.0119-.31411-.0357-.42834-.0238-.11898-.0595-.21417-.1071-.28556-.0476-.07615-.1094-.13326-.1856-.17133-.0714-.03808-.1547-.06663-.2499-.08567-.1999-.04283-.3688-.09757-.5068-.1642s-.2499-.1523-.3356-.257c-.0856-.10471-.1499-.23321-.1927-.38551-.0381-.15229-.0571-.33315-.0571-.54256 0-.257.0333-.47117.0999-.642506.0714-.176095.169-.318874.2927-.428339.1285-.109464.2784-.187993.4498-.2355859.1713-.0475931.3593-.07138971.564-.07138971.1189 0 .2474.01189831.3855.03569491.1427.0190373.2665.0428338.3712.0713897v.521145c-.1238-.028555-.2618-.052352-.4141-.071389-.1523-.023797-.2903-.035695-.414-.035695-.0905 0-.1785.014278-.2642.042834-.0809.028555-.1547.073769-.2213.13564-.0619.061871-.1142.14278-.157.242725-.0381.095186-.0572.214166-.0572.356946s.0072.26415.0215.36409c.0142.09519.0404.17372.0785.23559.0428.06187.0999.11184.1713.14992.0714.03331.1642.06187.2784.08566.1714.03332.3261.08091.4641.14278s.2546.14992.3498.26415c.0999.10946.1761.25224.2284.42833.0524.1761.0786.39503.0786.65679z"/></g></svg>