<svg width="684" height="98" viewBox="0 0 684 98" fill="none" xmlns="http://www.w3.org/2000/svg">
<path fill-rule="evenodd" clip-rule="evenodd" d="M0 26.8229V31.6566C0 37.6438 4.89151 46.0204 13.1715 48.8767C13.1715 48.8767 13.233 48.9006 13.3476 48.9453C13.233 48.99 13.1716 49.014 13.1716 49.014C4.89151 51.8703 0 60.2743 0 66.234V71.0677C0 86.7223 12.871 94.3848 25.4686 94.3848C33.0555 94.3848 40.4392 91.2965 45.2941 85.2677C50.1486 91.3146 57.5432 94.4123 65.1416 94.4123C77.7393 94.4123 90.6102 86.7223 90.6102 71.0952V66.2615C90.6102 60.3018 85.7187 51.8977 77.466 49.0415C77.4635 49.0389 77.3752 49.0031 77.2148 48.9393C77.3637 48.8808 77.4444 48.8492 77.4444 48.8492C85.7244 45.9929 90.5886 37.6164 90.5886 31.6292V26.8229C90.6159 11.1958 77.7449 3.50586 65.1473 3.50586C57.5268 3.50586 50.1608 6.59996 45.3079 12.6401C40.4551 6.59996 33.0891 3.50586 25.4686 3.50586C12.871 3.50586 0 11.1958 0 26.8229ZM50.9646 30.5303C50.965 30.5178 50.9771 30.1562 50.9646 29.5347V29.075C51.6205 19.6823 58.4249 15.1781 65.2839 15.1781C72.2249 15.1781 79.3026 19.1604 79.3026 26.8229V31.6566C79.3026 37.9185 72.9628 42.7796 64.5734 43.8782C64.5734 43.8782 64.5733 43.8883 64.5731 43.9079C64.5713 43.9072 64.5695 43.9064 64.5677 43.9057C64.5092 43.9057 64.5133 46.796 64.5297 49.4854C64.5195 51.7312 64.5223 53.8293 64.5673 53.9769C64.5676 54.0003 64.5677 54.0125 64.5677 54.0125C72.9297 55.1385 79.2969 59.9722 79.2969 66.234V71.0677C79.2969 78.7577 72.2192 82.74 65.2782 82.74C58.514 82.74 51.7499 78.3596 50.935 69.2301C50.9895 68.069 50.9646 67.36 50.9646 67.36V30.5303ZM39.6784 28.7126C38.8991 19.5664 32.1022 15.1781 25.332 15.1781C18.391 15.1781 11.3133 19.133 11.3133 26.8229V31.6841C11.3133 37.9459 17.6532 42.8071 26.0425 43.9057C26.0973 43.8919 26.0972 46.4293 26.0834 48.9647C26.0972 51.5033 26.0973 54.04 26.0425 54.0125C17.6532 55.111 11.3133 59.9722 11.3133 66.234V71.0677C11.3133 78.7577 18.391 82.74 25.332 82.74C32.1911 82.74 38.9954 78.2908 39.6513 68.898V68.6209C39.6296 67.8427 39.6456 67.3875 39.6456 67.3875L39.6513 67.3883V30.5306V29.5419C39.6559 29.3025 39.6643 29.0244 39.6784 28.7126ZM122.288 3.56196C110.018 3.56196 98.8142 10.1808 98.8142 24.7643V72.6893C98.8142 87.2453 110.401 94.2761 122.534 94.2761C134.148 94.2761 146.144 87.2727 146.144 72.6893V56.1284C146.144 41.8195 134.667 35.2007 122.534 35.2007C118.462 35.2007 111.33 37.7274 109.089 43.028L109.226 24.7368C109.226 17.706 115.566 14.1357 122.288 14.1357C126.25 14.1357 130.459 15.4814 135.077 19.8482L137.045 17.8708H137.181C137.275 17.7831 137.36 17.7011 137.438 17.6252C137.705 17.3682 137.899 17.1803 138.11 17.0743C138.233 16.9506 138.445 16.7378 138.686 16.5964C138.674 16.6106 138.697 16.5986 138.766 16.5525C138.739 16.5661 138.712 16.5808 138.686 16.5964C138.728 16.5453 139.22 16.1571 139.696 15.7816L139.696 15.7815L139.696 15.7814C139.88 15.6361 140.062 15.4927 140.214 15.3716L140.242 15.3495C140.915 14.8082 141.571 14.281 142.865 12.8448C135.35 5.01756 129.147 3.56196 122.288 3.56196ZM122.534 45.7195C129.256 45.7195 135.596 49.1525 135.596 56.1833V72.7717C135.323 79.9398 128.737 83.6475 122.397 83.6475C115.812 83.6475 109.226 79.9398 109.226 72.7717V56.5953C109.226 49.1525 115.675 45.7195 122.534 45.7195ZM159.041 25.038C159.041 10.6468 170.846 3.58848 183.171 3.58848C194.976 3.58848 207.054 10.6468 207.054 25.038V72.6334C207.054 87.4366 194.976 94.4949 183.171 94.4949C170.846 94.4949 159.041 87.4366 159.041 72.6334V25.038ZM169.671 72.6059C169.671 79.9389 176.312 83.674 183.198 83.674C189.702 83.674 196.452 79.9389 196.452 72.6059V25.038C196.452 18.117 189.702 14.3819 183.198 14.3819C176.312 14.3819 169.671 18.117 169.671 25.038V72.6059Z" fill="#FBFBFD"/>
<path d="M254.055 2V96" stroke="white" stroke-width="3.81081" stroke-linecap="round"/>
<g clip-path="url(#clip0_1848_101959)">
<path d="M675.922 79.1971C679.861 79.1971 683.055 76.0037 683.055 72.0644C683.055 68.1251 679.861 64.9316 675.922 64.9316C671.982 64.9316 668.789 68.1251 668.789 72.0644C668.789 76.0037 671.982 79.1971 675.922 79.1971Z" fill="white"/>
<path d="M665.558 48.1657C663.09 42.3184 654.384 38.7331 642.977 38.7331H642.912C636.881 38.7905 630.876 39.5347 625.013 40.9516C623.634 41.2869 622.407 42.0754 621.53 43.1907C620.653 44.306 620.175 45.6835 620.174 47.1025V52.2338C626.993 49.3923 634.304 47.918 641.692 47.8945C650.17 47.8945 654.639 49.9285 654.639 53.183V53.5464C642.12 53.5464 630.421 53.8068 623.488 56.4049C618.845 58.1244 615.114 61.3409 615.114 67.161C615.109 68.109 615.218 69.0542 615.439 69.9762C614.251 70.1417 613.053 70.225 611.854 70.2257C606.733 70.2257 602.508 68.6798 602.508 63.3207V48.8871H618.726V39.2646H602.508V30.4341H595.299C594.076 30.4333 592.898 30.8945 592.001 31.7253C591.104 32.5561 590.554 33.6952 590.461 34.9145L590.124 39.2538H566.839V30.4341H559.673C558.438 30.4308 557.248 30.8957 556.342 31.7351C555.436 32.5746 554.882 33.7262 554.791 34.9579L554.455 39.2646H546.72V45.5512C543.054 41.2662 535.373 38.7331 525.783 38.7331H525.713C519.794 38.7991 513.901 39.5269 508.144 40.9027C506.677 41.259 505.373 42.0976 504.441 43.2839C503.508 44.4701 503.001 45.9353 503.002 47.4443V52.2338C509.814 49.3951 517.117 47.9208 524.498 47.8945C532.981 47.8945 537.445 49.9285 537.445 53.183V53.5464C524.926 53.5464 513.226 53.8068 506.289 56.4049C502.356 57.8532 499.064 60.3917 498.152 64.6822V40.637H489.756C488.984 40.6416 488.24 40.9201 487.655 41.4228C487.069 41.9255 486.682 42.6197 486.561 43.3816L486.322 45.0088C481.224 40.344 473.765 38.8307 467.983 38.8307C461.892 38.8307 453.88 40.5068 448.673 45.5892V38.7602C446.336 38.2886 443.958 38.047 441.573 38.0388C435.129 38.0388 427.573 39.9427 423.299 46.0557L422.643 40.0132H417.002C415.535 40.0132 414.129 40.5953 413.091 41.6317C412.054 42.6681 411.47 44.074 411.469 45.5404V53.004C407.504 42.1557 394.139 39.6769 384.397 39.6769C373.939 39.6769 359.321 42.5191 356.609 55.51C353.512 41.9496 338.66 42.3293 338.66 42.3293H313.34V19.1465L301.055 19.1899V78.0853L341.692 77.9985C344.091 78.0692 346.476 77.606 348.673 76.6424C350.553 75.8616 352.225 74.6524 353.555 73.1113C354.853 71.5033 355.799 69.6406 356.332 67.6438C356.535 66.9062 356.697 66.1584 356.82 65.4036C360.004 77.6351 374.178 80.3526 384.402 80.3526C394.166 80.3526 407.509 77.8791 411.474 67.02V80.038H423.304V65.2843C423.304 54.436 427.514 47.8023 440.792 47.8023C442.661 47.8366 444.525 48.0271 446.363 48.3718C444.486 51.1761 443.336 54.7289 443.336 59.1767C443.336 75.1454 458.16 79.5172 467.989 79.5172C473.771 79.5172 481.229 78.0093 486.328 73.3391V73.7676C486.328 82.213 479.276 85.3699 468.775 85.3699C462.85 85.3251 456.982 84.2059 451.456 82.0666V92.188C457.205 94.0919 462.494 95.4046 468.58 95.4046C489.447 95.4046 498.158 85.7767 498.158 74.9664V69.6507C499.704 76.9353 508.198 79.4142 516.904 79.4142C526.407 79.4142 534.554 76.458 537.445 72.7425L538.09 79.8373H549.264V55.4883C549.264 52.2338 549.091 50.3733 548.608 48.8817H554.433V63.2556C554.433 76.4146 564.197 80.0217 574.747 80.0217C578.14 79.9392 581.505 79.3917 584.749 78.3944V68.7503C581.992 69.742 579.082 70.2414 576.152 70.2257C571.031 70.2257 566.806 68.6798 566.806 63.3207V48.8871H590.13V63.2556C590.13 76.4146 599.893 80.0217 610.438 80.0217C613.831 79.9404 617.196 79.3928 620.44 78.3944V76.4526C624.036 78.6223 629.032 79.4413 634.104 79.4413C643.596 79.4413 651.748 76.4851 654.639 72.7696L655.301 79.859H666.475V55.4883C666.469 51.6914 666.236 49.8038 665.558 48.1657ZM344.448 63.695C344.192 64.4325 343.722 65.0767 343.097 65.5446C342.498 65.9432 341.804 66.177 341.085 66.2227C340.273 66.2918 339.459 66.3189 338.644 66.304L313.319 66.3908V53.9153L338.666 53.861C339.48 53.8451 340.295 53.8741 341.107 53.9478C341.824 53.9941 342.518 54.2258 343.119 54.6204C343.734 55.0907 344.196 55.7323 344.448 56.4646C344.85 57.6251 345.033 58.8498 344.99 60.0771C345.033 61.3061 344.849 62.5325 344.448 63.695ZM384.381 70.9959C376.521 70.9959 367.978 68.235 367.978 60.0174C367.978 51.7998 376.521 49.0444 384.381 49.0444C392.24 49.0444 400.778 51.7998 400.778 60.0174C400.778 68.235 392.257 70.9959 384.402 70.9959H384.381ZM470.75 70.1335C463.286 70.1335 455.171 67.3671 455.171 59.155C455.171 50.9428 463.308 48.1765 470.75 48.1765C478.191 48.1765 486.328 51.6914 486.328 59.1767C486.328 66.662 478.208 70.1335 470.75 70.1335ZM517.565 70.4264C515.163 70.4264 510.433 69.8839 510.433 66.7162C510.464 66.0909 510.656 65.4842 510.989 64.9543C511.323 64.4243 511.787 63.9888 512.337 63.6896C516.611 61.0914 530.149 61.0914 534.917 61.0914H537.445C537.445 65.9406 529.526 70.4481 517.565 70.4481V70.4264ZM634.754 70.4264C632.352 70.4264 627.622 69.8839 627.622 66.7162C627.652 66.09 627.844 65.4823 628.179 64.952C628.513 64.4218 628.979 63.9869 629.531 63.6896C633.8 61.0914 647.338 61.0914 652.106 61.0914H654.634C654.634 65.9406 646.715 70.4481 634.754 70.4481V70.4264Z" fill="white"/>
</g>
<defs>
<clipPath id="clip0_1848_101959">
<rect width="382.002" height="76.2418" fill="white" transform="translate(301.055 19.1484)"/>
</clipPath>
</defs>
</svg>
