<svg width="52" height="52" viewBox="0 0 52 52" fill="none" xmlns="http://www.w3.org/2000/svg">
<path d="M1.5 18.501H43M43 15.551V48.951C43 49.801 42.3 50.501 41.45 50.501H3.05C2.63891 50.501 2.24467 50.3377 1.95398 50.047C1.6633 49.7563 1.5 49.3621 1.5 48.951V15.551C1.5 14.701 2.2 14.001 3.05 14.001H41.45C42.3 14.001 43 14.701 43 15.551V15.551Z" stroke="#EB9542" stroke-width="1.5"/>
<path d="M46.5 1.50098V2.20098C46.5 2.90098 45.9 3.50098 45.2 3.50098H39.8C39.4552 3.50098 39.1246 3.36401 38.8808 3.12022C38.637 2.87642 38.5 2.54576 38.5 2.20098V1.50098" stroke="#BDBDBD" stroke-width="1.5"/>
<path d="M48.45 1.50098H36.55C35.4178 1.50098 34.5 2.41879 34.5 3.55098V30.451C34.5 31.5832 35.4178 32.501 36.55 32.501H48.45C49.5822 32.501 50.5 31.5832 50.5 30.451V3.55098C50.5 2.41879 49.5822 1.50098 48.45 1.50098Z" stroke="#BDBDBD" stroke-width="1.5"/>
<path d="M4.25 15.501C4.66421 15.501 5 15.8368 5 16.251C5 16.6652 4.66421 17.001 4.25 17.001C3.83579 17.001 3.5 16.6652 3.5 16.251C3.5 15.8368 3.83579 15.501 4.25 15.501Z" fill="#EB9542"/>
<path d="M6.75 15.501C7.16421 15.501 7.5 15.8368 7.5 16.251C7.5 16.6652 7.16421 17.001 6.75 17.001C6.33579 17.001 6 16.6652 6 16.251C6 15.8368 6.33579 15.501 6.75 15.501Z" fill="#EB9542"/>
<path d="M9.25 15.501C8.83579 15.501 8.5 15.8368 8.5 16.251C8.5 16.6652 8.83579 17.001 9.25 17.001C9.66421 17.001 10 16.6652 10 16.251C10 15.8368 9.66421 15.501 9.25 15.501Z" fill="#EB9542"/>
</svg>
