<svg fill="none" height="52" viewBox="0 0 52 52" width="52" xmlns="http://www.w3.org/2000/svg"><g stroke-width="1.5"><path d="m1.5 18.501h41.5m0-2.95v33.4c0 .85-.7 1.55-1.55 1.55h-38.4c-.41109 0-.80533-.1633-1.09602-.454-.29068-.2907-.45398-.6849-.45398-1.096v-33.4c0-.85.7-1.55 1.55-1.55h38.4c.85 0 1.55.7 1.55 1.55z" stroke="#eb9542"/><path d="m46.5 1.50098v.7c0 .7-.6 1.3-1.3 1.3h-5.4c-.3448 0-.6754-.13697-.9192-.38076-.2438-.2438-.3808-.57446-.3808-.91924v-.7" stroke="#bdbdbd"/><path d="m48.45 1.50098h-11.9c-1.1322 0-2.05.91781-2.05 2.05v26.90002c0 1.1322.9178 2.05 2.05 2.05h11.9c1.1322 0 2.05-.9178 2.05-2.05v-26.90002c0-1.13219-.9178-2.05-2.05-2.05z" stroke="#bdbdbd"/></g><path d="m4.25 15.501c.41421 0 .75.3358.75.75s-.33579.75-.75.75-.75-.3358-.75-.75.33579-.75.75-.75z" fill="#eb9542"/><path d="m6.75 15.501c.41421 0 .75.3358.75.75s-.33579.75-.75.75-.75-.3358-.75-.75.33579-.75.75-.75z" fill="#eb9542"/><path d="m9.25 15.501c-.41421 0-.75.3358-.75.75s.33579.75.75.75.75-.3358.75-.75-.33579-.75-.75-.75z" fill="#eb9542"/></svg>