<svg width="306" height="189" viewBox="0 0 306 189" fill="none" xmlns="http://www.w3.org/2000/svg">
  <path fill-rule="evenodd" clip-rule="evenodd" d="M0 34.4147V41.5489C0 50.3857 7.21959 62.749 19.4405 66.9647C19.4405 66.9647 19.5312 67.0001 19.7003 67.0661C19.5312 67.1321 19.4405 67.1674 19.4405 67.1674C7.21959 71.3831 0 83.787 0 92.5832V99.7174C0 122.823 18.9968 134.132 37.5903 134.132C48.7898 134.132 59.6894 129.573 66.8549 120.672C74.0198 129.599 84.9353 134.172 96.1516 134.172C114.745 134.172 133.742 122.822 133.742 99.7575V92.6232C133.742 83.827 126.522 71.4231 114.342 67.2075C114.338 67.2037 114.207 67.1505 113.969 67.0557C114.186 66.9704 114.303 66.9242 114.303 66.9242C126.524 62.7085 133.704 50.3451 133.704 41.5084V34.4147C133.744 11.35 114.747 0 96.1536 0C84.9063 0 74.0345 4.56672 66.8719 13.4817C59.7094 4.56672 48.8376 0 37.5903 0C18.9968 0 0 11.35 0 34.4147ZM75.2209 39.887C75.2209 39.887 75.2397 39.3504 75.2209 38.4163V37.7386C76.1889 23.8754 86.2318 17.2276 96.3553 17.2276C106.6 17.2276 117.046 23.1053 117.046 34.4147V41.5489C117.046 50.791 107.689 57.9658 95.3067 59.5873C95.3067 59.5873 95.3065 59.6011 95.3062 59.628C95.3057 59.6277 95.3052 59.6275 95.3046 59.6273C95.2227 59.6273 95.224 63.4788 95.2451 67.2677C95.2262 70.9035 95.2274 74.469 95.3042 74.5044C95.3045 74.5308 95.3046 74.5444 95.3046 74.5444C107.647 76.2063 117.044 83.3406 117.044 92.5827V99.717C117.044 111.067 106.598 116.945 96.3533 116.945C86.3581 116.945 76.363 110.464 75.1794 96.9576C75.2569 95.2721 75.2209 94.2451 75.2209 94.2451V39.887ZM58.563 37.2037C57.4129 23.7044 47.3811 17.2276 37.3886 17.2276C27.144 17.2276 16.6978 23.0647 16.6978 34.4147V41.5895C16.6978 50.8316 26.0551 58.0064 38.4373 59.6278C38.5181 59.6075 38.5179 63.3522 38.4976 67.0943C38.5179 70.8412 38.5181 74.5855 38.4373 74.5449C26.0551 76.1663 16.6978 83.3411 16.6978 92.5832V99.7174C16.6978 111.067 27.144 116.945 37.3886 116.945C47.5122 116.945 57.5551 110.378 58.523 96.5151V95.8508C58.5009 94.8583 58.521 94.2852 58.521 94.2852L58.523 94.2855V39.887V38.4277C58.5299 38.0744 58.5422 37.6639 58.563 37.2037ZM180.49 0.0820312C162.381 0.0820312 145.844 9.8511 145.844 31.3755V102.11C145.844 123.594 162.945 133.971 180.853 133.971C197.995 133.971 215.701 123.634 215.701 102.11V77.6671C215.701 56.5481 198.761 46.779 180.853 46.779C174.844 46.779 164.317 50.5083 161.009 58.3316L161.211 31.3349C161.211 20.9578 170.568 15.6882 180.49 15.6882C186.338 15.6882 192.55 17.6745 199.366 24.1196L202.27 21.2011H202.472C202.609 21.0721 202.734 20.9514 202.85 20.8397L202.851 20.8391L202.851 20.8386C203.244 20.4592 203.532 20.182 203.843 20.0255L203.843 20.0254C204.025 19.8428 204.337 19.5287 204.692 19.3201C204.675 19.3411 204.709 19.3233 204.811 19.2553C204.771 19.2754 204.731 19.2971 204.692 19.3201C204.754 19.2447 205.481 18.6714 206.184 18.1171L206.188 18.1142C206.458 17.9008 206.725 17.6903 206.949 17.5123L206.989 17.4798C207.983 16.6808 208.951 15.9027 210.861 13.783C199.769 2.23042 190.614 0.0820312 180.49 0.0820312ZM180.853 62.3041C190.775 62.3041 200.132 67.3711 200.132 77.7482V102.232C199.729 112.811 190.009 118.284 180.651 118.284C170.931 118.284 161.211 112.811 161.211 102.232V78.3562C161.211 67.3711 170.73 62.3041 180.853 62.3041ZM234.735 31.7809C234.735 10.5403 252.159 0.122658 270.349 0.122658C287.773 0.122658 305.6 10.5403 305.6 31.7809V102.029C305.6 123.878 287.773 134.295 270.349 134.295C252.159 134.295 234.735 123.878 234.735 102.029V31.7809ZM250.425 101.988C250.425 112.811 260.225 118.324 270.389 118.324C279.989 118.324 289.951 112.811 289.951 101.988V31.7809C289.951 21.566 279.989 16.0531 270.389 16.0531C260.225 16.0531 250.425 21.566 250.425 31.7809V101.988Z" fill="#FBFBFD"/>
  <g clip-path="url(#clip0_1693_91801)">
    <path d="M165.763 180.848C167.505 180.848 168.917 179.436 168.917 177.694C168.917 175.952 167.505 174.54 165.763 174.54C164.021 174.54 162.609 175.952 162.609 177.694C162.609 179.436 164.021 180.848 165.763 180.848Z" fill="white"/>
    <path d="M161.18 167.126C160.089 164.54 156.239 162.955 151.195 162.955H151.166C148.499 162.98 145.844 163.309 143.251 163.936C142.642 164.084 142.099 164.433 141.711 164.926C141.323 165.419 141.112 166.028 141.112 166.656V168.925C144.127 167.668 147.36 167.016 150.627 167.006C154.376 167.006 156.352 167.905 156.352 169.345V169.505C150.816 169.505 145.643 169.62 142.577 170.769C140.524 171.53 138.874 172.952 138.874 175.526C138.872 175.945 138.92 176.363 139.018 176.77C138.493 176.844 137.963 176.88 137.432 176.881C135.168 176.881 133.3 176.197 133.3 173.827V167.445H140.471V163.19H133.3V159.285H130.112C129.572 159.285 129.051 159.489 128.654 159.856C128.257 160.224 128.014 160.727 127.973 161.266L127.824 163.185H117.527V159.285H114.359C113.813 159.284 113.286 159.489 112.886 159.861C112.485 160.232 112.24 160.741 112.2 161.286L112.051 163.19H108.631V165.97C107.01 164.075 103.613 162.955 99.3729 162.955H99.3417C96.7244 162.984 94.1186 163.306 91.5729 163.914C90.9245 164.072 90.3479 164.443 89.9355 164.967C89.5232 165.492 89.2991 166.14 89.2991 166.807V168.925C92.3115 167.67 95.541 167.018 98.8044 167.006C102.556 167.006 104.53 167.905 104.53 169.345V169.505C98.9939 169.505 93.8203 169.62 90.7526 170.769C89.0137 171.41 87.5578 172.532 87.1548 174.429V163.797H83.4419C83.1008 163.799 82.7715 163.922 82.5128 164.144C82.254 164.367 82.0826 164.674 82.0292 165.01L81.9237 165.73C79.6691 163.667 76.3711 162.998 73.8143 162.998C71.1208 162.998 67.5781 163.739 65.2756 165.987V162.967C64.2419 162.758 63.1904 162.652 62.1359 162.648C59.2865 162.648 55.9454 163.49 54.0553 166.193L53.7651 163.521H51.2706C50.6222 163.521 50.0003 163.778 49.5416 164.237C49.0828 164.695 48.8248 165.317 48.8242 165.965V169.265C47.0709 164.468 41.1609 163.372 36.8532 163.372C32.2288 163.372 25.7648 164.629 24.5656 170.374C23.196 164.377 16.6289 164.545 16.6289 164.545H5.43264V154.294L0 154.313V180.356L17.9697 180.318C19.0303 180.349 20.0847 180.144 21.0566 179.718C21.8879 179.373 22.6271 178.838 23.2152 178.157C23.7893 177.446 24.2076 176.622 24.4433 175.739C24.5327 175.413 24.6047 175.082 24.6591 174.748C26.0671 180.157 32.3344 181.359 36.8556 181.359C41.1729 181.359 47.0733 180.265 48.8266 175.463V181.22H54.0577V174.696C54.0577 169.899 55.919 166.965 61.7905 166.965C62.6172 166.98 63.4412 167.065 64.2538 167.217C63.4239 168.457 62.9154 170.028 62.9154 171.995C62.9154 179.056 69.4706 180.989 73.8167 180.989C76.3735 180.989 79.6715 180.323 81.9261 178.257V178.447C81.9261 182.181 78.808 183.577 74.1645 183.577C71.5443 183.558 68.9495 183.063 66.506 182.117V186.592C69.0484 187.434 71.387 188.015 74.0781 188.015C83.3052 188.015 87.1572 183.757 87.1572 178.977V176.626C87.8408 179.848 91.5969 180.944 95.4465 180.944C99.6487 180.944 103.251 179.637 104.53 177.994L104.815 181.131H109.756V170.364C109.756 168.925 109.679 168.102 109.466 167.443H112.042V173.799C112.042 179.617 116.359 181.212 121.024 181.212C122.525 181.176 124.013 180.934 125.447 180.493V176.228C124.228 176.667 122.941 176.888 121.645 176.881C119.381 176.881 117.513 176.197 117.513 173.827V167.445H127.826V173.799C127.826 179.617 132.144 181.212 136.806 181.212C138.307 181.176 139.795 180.934 141.229 180.493V179.634C142.82 180.594 145.029 180.956 147.271 180.956C151.469 180.956 155.074 179.649 156.352 178.006L156.645 181.14H161.586V170.364C161.583 168.685 161.48 167.85 161.18 167.126ZM19.1881 173.993C19.0751 174.319 18.8671 174.604 18.5909 174.811C18.3257 174.987 18.0188 175.09 17.701 175.111C17.3421 175.141 16.9819 175.153 16.6217 175.147L5.42304 175.185V169.668L16.6313 169.644C16.9915 169.637 17.3518 169.65 17.7106 169.683C18.028 169.703 18.3346 169.806 18.6005 169.98C18.8725 170.188 19.0769 170.472 19.1881 170.796C19.3657 171.309 19.447 171.85 19.428 172.393C19.4468 172.937 19.3655 173.479 19.1881 173.993ZM36.846 177.221C33.3705 177.221 29.5929 176 29.5929 172.367C29.5929 168.733 33.3705 167.515 36.846 167.515C40.3214 167.515 44.0967 168.733 44.0967 172.367C44.0967 176 40.3286 177.221 36.8556 177.221H36.846ZM75.0375 176.84C71.7372 176.84 68.149 175.617 68.149 171.985C68.149 168.354 71.7468 167.131 75.0375 167.131C78.3283 167.131 81.9261 168.685 81.9261 171.995C81.9261 175.305 78.3355 176.84 75.0375 176.84ZM95.7391 176.969C94.6766 176.969 92.5851 176.73 92.5851 175.329C92.5991 175.052 92.6838 174.784 92.8312 174.55C92.9786 174.315 93.1838 174.123 93.4269 173.99C95.317 172.842 101.304 172.842 103.412 172.842H104.53C104.53 174.986 101.028 176.979 95.7391 176.979V176.969ZM147.559 176.969C146.496 176.969 144.405 176.73 144.405 175.329C144.419 175.052 144.503 174.783 144.651 174.549C144.799 174.314 145.005 174.122 145.249 173.99C147.137 172.842 153.124 172.842 155.232 172.842H156.35C156.35 174.986 152.848 176.979 147.559 176.979V176.969Z" fill="white"/>
  </g>
  <defs>
    <clipPath id="clip0_1693_91801">
      <rect width="168.918" height="33.7134" fill="white" transform="translate(0 154.295)"/>
    </clipPath>
  </defs>
</svg>
