<svg fill="none" height="88" viewBox="0 0 612 88" width="612" xmlns="http://www.w3.org/2000/svg" xmlns:xlink="http://www.w3.org/1999/xlink"><clipPath id="a"><path d="m269.555 17.0332h341.363v68.1309h-341.363z"/></clipPath><path clip-rule="evenodd" d="m.519531 23.8902v4.3195c0 5.3502 4.371129 12.8357 11.770269 15.3881 0 0 .055.0214.1574.0613-.1024.04-.1574.0614-.1574.0614-7.39914 2.5524-11.770269 10.0624-11.770269 15.3881v4.3194c0 13.9892 11.501669 20.8365 22.759169 20.8365 6.7806 0 13.3795-2.7603 17.7179-8.149 4.338 5.4048 10.9466 8.1734 17.7374 8.1734 11.2575 0 22.7592-6.8718 22.7592-20.8365v-4.3194c0-5.3257-4.3712-12.8357-11.7459-15.3881-.0023-.0023-.0816-.0345-.2257-.0918.132-.0518.2034-.0799.2034-.0799 7.3992-2.5524 11.7459-10.0378 11.7459-15.3881v-4.2949c.0245-13.96461-11.4772-20.83649-22.7347-20.83649-6.8098 0-13.3921 2.76494-17.7288 8.16249-4.3366-5.39755-10.919-8.16249-17.7287-8.16249-11.2575 0-22.759169 6.87188-22.759169 20.83649zm45.542769 3.3131c.0003-.0068.0113-.3307 0-.8901v-.4105c.5861-8.3935 6.6666-12.4185 12.796-12.4185 6.2026 0 12.5273 3.5587 12.5273 10.406v4.3195c0 5.5957-5.6654 9.9397-13.1622 10.9214 0 0-.0001.0085-.0003.0251-.0007-.0002-.0013-.0005-.0019-.0008-.0503 0-.0488 2.3929-.0355 4.7153.0125 2.1895.0355 4.3163.0355 4.3163 7.4724 1.0063 13.1622 5.3257 13.1622 10.9214v4.3195c0 6.8719-6.3247 10.4305-12.5273 10.4305-6.0499 0-12.0997-3.9212-12.8192-12.0941.0473-1.0247.0254-1.6495.0254-1.6495v-32.9114s0 0 0-.0001zm-10.0855-1.6244c-.6964-8.1733-6.7702-12.0947-12.8202-12.0947-6.2026 0-12.5273 3.5341-12.5273 10.406v4.344c0 5.5957 5.6654 9.9397 13.1622 10.9214.049-.0123.0489 2.255.0366 4.5207.0123 2.2685.0124 4.5355-.0366 4.5109-7.4968.9817-13.1622 5.3257-13.1622 10.9214v4.3194c0 6.8719 6.3247 10.4306 12.5273 10.4306 6.1294 0 12.2099-3.9759 12.796-12.3694v-.3604c-.015-.6265-.0022-.9896-.0022-.9896l.0022.0003v-32.9361-.8835c.0041-.2139.0115-.4625.0242-.741zm73.8202-22.47441c-10.9646 0-20.9767 5.91473-20.9767 18.94671v42.8266c0 13.0074 10.354 19.2903 21.1967 19.2903 10.378 0 21.098-6.2583 21.098-19.2903v-14.7991c0-12.7866-10.256-18.7013-21.098-18.7013-3.639 0-10.012 2.2579-12.0149 6.9945l.1221-16.3452c0-6.2829 5.6658-9.4734 11.6728-9.4734 3.541 0 7.301 1.2026 11.428 5.1048l1.759-1.767h.122c.083-.0783.159-.1516.229-.2194v-.0001c.238-.2297.412-.3975.601-.4922.11-.1106.299-.3008.514-.4272-.01.0128.011.002.072-.0391-.024.0121-.048.0252-.072.0391.038-.0456.478-.3928.903-.7284.165-.1298.327-.2578.463-.3661l.025-.0196c.601-.4838 1.187-.9549 2.344-2.2383-6.716-6.99456-12.259-8.29531-18.388-8.29531zm.22 37.67261c6.007 0 11.672 3.0678 11.672 9.3507v14.8236c-.244 6.4056-6.129 9.7188-11.794 9.7188-5.886 0-11.7708-3.3132-11.7708-9.7188v-14.4555c0-6.651 5.7628-9.7188 11.8928-9.7188zm32.628-18.4811c0-12.86018 10.549-19.16758 21.562-19.16758 10.549 0 21.343 6.3074 21.343 19.16758v42.532c0 13.2284-10.794 19.5358-21.343 19.5358-11.013 0-21.562-6.3074-21.562-19.5358zm9.499 42.5075c0 6.5528 5.934 9.8906 12.088 9.8906 5.811 0 11.843-3.3378 11.843-9.8906v-42.5075c0-6.1846-6.032-9.5224-11.843-9.5224-6.154 0-12.088 3.3378-12.088 9.5224z" fill="#fbfbfd" fill-rule="evenodd"/><path d="m227.551 1.70898v83.99992" stroke="#fff" stroke-linecap="round" stroke-width="3.4054"/><g clip-path="url(#a)" fill="#fff"><path d="m604.546 70.6937c3.52 0 6.374-2.8537 6.374-6.374 0-3.5202-2.854-6.3739-6.374-6.3739s-6.374 2.8537-6.374 6.3739c0 3.5203 2.854 6.374 6.374 6.374z"/><path d="m595.281 42.9642c-2.205-5.2251-9.985-8.4291-20.179-8.4291h-.058c-5.39.0513-10.756.7164-15.995 1.9825-1.232.2996-2.328 1.0042-3.112 2.0009s-1.211 2.2277-1.212 3.4957v4.5854c6.094-2.5392 12.627-3.8567 19.229-3.8777 7.576 0 11.57 1.8176 11.57 4.7259v.3248c-11.187 0-21.643.2326-27.837 2.5544-4.149 1.5365-7.484 4.4108-7.484 9.6118-.004.8471.093 1.6917.291 2.5156-1.062.1479-2.133.2224-3.204.223-4.576 0-8.352-1.3814-8.352-6.1704v-12.8981h14.493v-8.5988h-14.493v-7.8911h-6.442c-1.092-.0007-2.145.4114-2.947 1.1539-.802.7424-1.293 1.7603-1.376 2.8499l-.301 3.8776h-20.809v-7.8814h-6.403c-1.103-.0029-2.167.4125-2.976 1.1627-.81.7501-1.305 1.7792-1.386 2.8798l-.301 3.8486h-6.912v5.6178c-3.276-3.8292-10.14-6.0928-18.709-6.0928h-.063c-5.29.059-10.556.7093-15.7 1.9389-1.311.3183-2.476 1.0677-3.309 2.1278-.833 1.06-1.286 2.3694-1.286 3.7178v4.28c6.087-2.5367 12.614-3.8542 19.209-3.8777 7.581 0 11.57 1.8176 11.57 4.7259v.3248c-11.187 0-21.642.2326-27.842 2.5544-3.514 1.2942-6.456 3.5626-7.271 7.3967v-21.4872h-7.503c-.689.0041-1.355.2529-1.878.7022-.523.4492-.869 1.0695-.977 1.7504l-.213 1.4541c-4.556-4.1685-11.221-5.5208-16.388-5.5208-5.444 0-12.603 1.4977-17.256 6.0395v-6.1025c-2.089-.4214-4.214-.6374-6.345-.6447-5.758 0-12.51 1.7013-16.33 7.164l-.586-5.3997h-5.041c-1.311 0-2.568.5203-3.495 1.4464s-1.448 2.1824-1.449 3.4928v6.6696c-3.544-9.6942-15.487-11.9093-24.192-11.9093-9.346 0-22.409 2.5399-24.832 14.1487-2.768-12.1178-16.039-11.7785-16.039-11.7785h-22.627v-20.7165l-10.978.0388v52.6299l36.314-.0776c2.144.0632 4.275-.3507 6.239-1.2118 1.68-.6978 3.173-1.7783 4.362-3.1554 1.16-1.437 2.005-3.1016 2.482-4.8859.18-.6591.326-1.3273.436-2.0019 2.845 10.9302 15.511 13.3586 24.647 13.3586 8.725 0 20.649-2.2102 24.192-11.9141v11.633h10.572v-13.1841c0-9.6942 3.761-15.6222 15.627-15.6222 1.671.0307 3.336.2009 4.978.5089-1.677 2.506-2.705 5.6808-2.705 9.6555 0 14.2698 13.248 18.1766 22.031 18.1766 5.167 0 11.831-1.3475 16.388-5.5209v.383c0 7.5469-6.302 10.3679-15.686 10.3679-5.295-.04-10.538-1.0401-15.476-2.9519v9.0447c5.137 1.7014 9.863 2.8744 15.302 2.8744 18.647 0 26.431-8.6037 26.431-18.2639v-4.7502c1.382 6.5097 8.972 8.7248 16.752 8.7248 8.492 0 15.772-2.6417 18.356-5.9619l.577 6.34h9.985v-21.7587c0-2.9082-.155-4.5708-.587-5.9038h5.206v12.8449c0 11.759 8.725 14.9824 18.152 14.9824 3.032-.0737 6.04-.563 8.939-1.4542v-8.6181c-2.464.8862-5.065 1.3324-7.683 1.3184-4.576 0-8.352-1.3814-8.352-6.1704v-12.8981h20.843v12.84c0 11.759 8.725 14.9824 18.148 14.9824 3.031-.0727 6.039-.562 8.938-1.4542v-1.7352c3.213 1.9388 7.677 2.6707 12.21 2.6707 8.482 0 15.767-2.6416 18.351-5.9619l.591 6.3352h9.985v-21.7781c-.005-3.393-.213-5.0797-.819-6.5436zm-286.949 13.8773c-.229.659-.649 1.2347-1.207 1.6529-.536.3561-1.156.565-1.799.6058-.725.0618-1.453.0861-2.181.0727l-22.631.0776v-11.1483l22.651-.0485c.728-.0142 1.456.0117 2.181.0775.641.0414 1.261.2485 1.798.6011.55.4202.963.9936 1.188 1.648.359 1.037.523 2.1314.484 3.2282.038 1.0982-.126 2.1941-.484 3.233zm35.684 6.5242c-7.023 0-14.658-2.4672-14.658-9.8106 0-7.3433 7.635-9.8056 14.658-9.8056 7.024 0 14.653 2.4623 14.653 9.8056 0 7.3434-7.615 9.8106-14.634 9.8106zm77.181-.7707c-6.67 0-13.921-2.472-13.921-9.8105 0-7.3386 7.27-9.8106 13.921-9.8106 6.65 0 13.921 3.1409 13.921 9.83 0 6.689-7.256 9.7911-13.921 9.7911zm41.835.2617c-2.147 0-6.374-.4847-6.374-3.3154.028-.5588.2-1.1009.498-1.5745s.712-.8627 1.204-1.1302c3.819-2.3217 15.918-2.3217 20.178-2.3217h2.259c0 4.3333-7.077 8.3612-17.765 8.3612zm104.722 0c-2.147 0-6.374-.4847-6.374-3.3154.028-.5596.199-1.1026.498-1.5765s.715-.8625 1.208-1.1282c3.815-2.3217 15.913-2.3217 20.174-2.3217h2.259c0 4.3333-7.077 8.3612-17.765 8.3612z"/></g></svg>